<mxfile host="Electron" agent="Mozilla/5.0 (Macintosh; Intel Mac OS X 10_15_7) AppleWebKit/537.36 (KHTML, like Gecko) draw.io/24.7.17 Chrome/128.0.6613.36 Electron/32.0.1 Safari/537.36" version="24.7.17">
  <diagram id="NoHKQjYiiaeESs5L2mIx" name="Page-1">
    <mxGraphModel dx="6698" dy="2290" grid="1" gridSize="10" guides="1" tooltips="1" connect="1" arrows="1" fold="1" page="1" pageScale="1" pageWidth="850" pageHeight="1100" math="0" shadow="0">
      <root>
        <mxCell id="0" />
        <mxCell id="1" value="Organization / Base" parent="0" />
        <mxCell id="NB6zla1_pPjd2Ij3sc6e-46" value="" style="rounded=0;whiteSpace=wrap;html=1;fontSize=16;fontColor=#000000;fontStyle=1;dashed=1;" parent="1" vertex="1">
          <mxGeometry x="-1780" y="25" width="3100" height="1615" as="geometry" />
        </mxCell>
        <mxCell id="enbUaxdGhNBLt_-zqNYd-1" value="Example:Â  Production OU" style="fillColor=#EFF0F3;strokeColor=none;dashed=0;verticalAlign=top;fontStyle=1;fontColor=#232F3D;fontSize=16;" parent="1" vertex="1">
          <mxGeometry x="570" y="393.0013793103449" width="640" height="707.1586206896552" as="geometry" />
        </mxCell>
        <mxCell id="6alUi45Nj-87CM71QCCf-3" value="&lt;font style=&quot;font-size: 16px&quot;&gt;&amp;nbsp;AWS Organizations&lt;/font&gt;" style="outlineConnect=0;fontColor=#232F3E;gradientColor=#F54749;gradientDirection=north;fillColor=#C7131F;strokeColor=#ffffff;dashed=0;verticalLabelPosition=middle;verticalAlign=middle;align=left;html=1;fontSize=16;fontStyle=1;aspect=fixed;shape=mxgraph.aws4.resourceIcon;resIcon=mxgraph.aws4.organizations;labelPosition=right;" parent="1" vertex="1">
          <mxGeometry x="-1592.9985714285715" y="70.00008141606872" width="44.405169131621484" height="44.405169131621484" as="geometry" />
        </mxCell>
        <mxCell id="CxIQSj_tXQ3jHg43zF80-15" value="" style="group;fontStyle=1" parent="1" vertex="1" connectable="0">
          <mxGeometry x="-1550" y="140" width="780" height="1440" as="geometry" />
        </mxCell>
        <mxCell id="CxIQSj_tXQ3jHg43zF80-16" value="Example: Infrastructure OU" style="fillColor=#EFF0F3;strokeColor=none;dashed=0;verticalAlign=top;fontStyle=1;fontColor=#232F3D;fontSize=16;" parent="CxIQSj_tXQ3jHg43zF80-15" vertex="1">
          <mxGeometry x="-30" width="810" height="1440" as="geometry" />
        </mxCell>
        <mxCell id="CxIQSj_tXQ3jHg43zF80-17" value="" style="outlineConnect=0;fontColor=#232F3E;gradientColor=none;fillColor=#BC1356;strokeColor=none;dashed=0;verticalLabelPosition=bottom;verticalAlign=top;align=center;html=1;fontSize=12;fontStyle=1;aspect=fixed;pointerEvents=1;shape=mxgraph.aws4.organizations_organizational_unit;" parent="CxIQSj_tXQ3jHg43zF80-15" vertex="1">
          <mxGeometry width="35.37350649350649" height="30.389610389610386" as="geometry" />
        </mxCell>
        <mxCell id="6alUi45Nj-87CM71QCCf-43" value="&lt;font style=&quot;font-size: 16px&quot;&gt;&lt;span&gt;Central Account Backup / Archive Account&lt;/span&gt;&lt;/font&gt;" style="points=[[0,0],[0.25,0],[0.5,0],[0.75,0],[1,0],[1,0.25],[1,0.5],[1,0.75],[1,1],[0.75,1],[0.5,1],[0.25,1],[0,1],[0,0.75],[0,0.5],[0,0.25]];outlineConnect=0;gradientColor=none;html=1;whiteSpace=wrap;fontSize=16;fontStyle=1;shape=mxgraph.aws4.group;grIcon=mxgraph.aws4.group_aws_cloud;strokeColor=#232F3E;fillColor=none;verticalAlign=top;align=left;spacingLeft=30;fontColor=#232F3E;dashed=0;" parent="CxIQSj_tXQ3jHg43zF80-15" vertex="1">
          <mxGeometry x="10" y="716.75" width="760" height="699.84" as="geometry" />
        </mxCell>
        <mxCell id="OqShdTPiF2n6pkkPBl1H-3" value="&lt;font style=&quot;font-size: 16px&quot;&gt;&lt;span&gt;Solution Home Account (CloudFormation, Backup Policy, Backup Monitoring Delegated Admin)&lt;/span&gt;&lt;/font&gt;" style="points=[[0,0],[0.25,0],[0.5,0],[0.75,0],[1,0],[1,0.25],[1,0.5],[1,0.75],[1,1],[0.75,1],[0.5,1],[0.25,1],[0,1],[0,0.75],[0,0.5],[0,0.25]];outlineConnect=0;gradientColor=none;html=1;whiteSpace=wrap;fontSize=16;fontStyle=1;shape=mxgraph.aws4.group;grIcon=mxgraph.aws4.group_aws_cloud;strokeColor=#232F3E;fillColor=none;verticalAlign=top;align=left;spacingLeft=30;fontColor=#232F3E;dashed=0;" parent="CxIQSj_tXQ3jHg43zF80-15" vertex="1">
          <mxGeometry x="-20" y="50" width="790" height="601.86" as="geometry" />
        </mxCell>
        <mxCell id="aefqfl1ly7InYCL16Vul-12" value="" style="group;fontStyle=1" parent="CxIQSj_tXQ3jHg43zF80-15" vertex="1" connectable="0">
          <mxGeometry x="54.16666666666666" y="188.6178861788617" width="660.8333333333331" height="492.2926829268292" as="geometry" />
        </mxCell>
        <mxCell id="aefqfl1ly7InYCL16Vul-6" value="" style="whiteSpace=wrap;html=1;fillColor=none;fontSize=16;dashed=1;dashPattern=1 1;strokeColor=#00cc00;spacingTop=0;fontStyle=1" parent="CxIQSj_tXQ3jHg43zF80-15" vertex="1">
          <mxGeometry x="21.45" y="765.28" width="738.55" height="644.72" as="geometry" />
        </mxCell>
        <mxCell id="6alUi45Nj-87CM71QCCf-47" value="&lt;p style=&quot;font-size: 12px;&quot;&gt;&lt;font color=&quot;#000000&quot; style=&quot;font-size: 12px&quot;&gt;Vault Access Policy&lt;/font&gt;&lt;/p&gt;" style="outlineConnect=0;fontColor=#232F3E;gradientColor=none;fillColor=#C7131F;strokeColor=none;dashed=0;verticalLabelPosition=bottom;verticalAlign=top;align=center;html=1;fontSize=12;fontStyle=1;aspect=fixed;pointerEvents=1;shape=mxgraph.aws4.permissions;" parent="CxIQSj_tXQ3jHg43zF80-15" vertex="1">
          <mxGeometry x="80" y="1090" width="52.15" height="65.61" as="geometry" />
        </mxCell>
        <mxCell id="vsZvOWJckSr3CKBYO4Zu-12" style="edgeStyle=orthogonalEdgeStyle;rounded=0;orthogonalLoop=1;jettySize=auto;html=1;" parent="CxIQSj_tXQ3jHg43zF80-15" source="6alUi45Nj-87CM71QCCf-66" target="6alUi45Nj-87CM71QCCf-52" edge="1">
          <mxGeometry relative="1" as="geometry">
            <Array as="points">
              <mxPoint x="410" y="1230" />
              <mxPoint x="410" y="1230" />
            </Array>
          </mxGeometry>
        </mxCell>
        <mxCell id="6alUi45Nj-87CM71QCCf-66" value="AWSBackupSolutionCentralVault&#xa;AWS Backup Vault" style="shape=image;verticalLabelPosition=bottom;labelBackgroundColor=none;verticalAlign=top;aspect=fixed;imageAspect=0;image=data:image/png,iVBORw0KGgoAAAANSUhEUgAAAEgAAABKCAYAAAAYJRJMAAAJ8klEQVR4Ae1beYglRxnvbLzPeF9RFNck5piZ1189AlFwQkLiupl5Xb2OFx54SzDx3hhw3O6qtyuKR5QkiKgJIoLgQfBYAmpMvIIaxCOCrn94JqhRA27U7G5c+dWb773v9euqrp55s7vjzMBQ1d/3+476urqOr+olydbfVgS2IrAVgRMkAnnZ2aeNuje36uhm/EfbdaH2el/HZg4OdwjEwBsgBm32MipAXtD/KUN2Cm8To0Be6Y3NiGp7FGhjx8HrfVTbo0BeExubEdX2KNCU4/CCovtEbTrPy8rOLm3T1/cMvU6X9KqsVDt6y3TOfDH/oCmbrFUX1fYoUK36eOKOYubUzNJl2qY35FbdJW3W1bVRh7VVP9ElXZWXdP58MX+/eGvxSGnbKxUF8koHGSflZaq1Ud/Qhu6TdtrX6c6sJLNYdJ4ctNiSKf3wikaBvNL1jMVCLWpDt0vdsq4N/SMv0+/lRn1Bl/QJ92/pem3VjdrQr3wB1Yb+rUv1gZ3vPudR9ZbbUaVPXskokJReSk6Wj7J+SX/2KdrQV6XOQZ2O5Fbtz616Y2bPfqaUqasv7j794b2ic6E29FFt6I9VfdrSn7VN8zrZNjSp1ysXBWLpItnGeG3VISajzEvaOTm+0N3Y5+R76UkS26q+lJyMYORW3cq2h6Wh63Zctv2BrfQJ8FCPVUcFebyal6rg/3HO5BO9ge7PSmWAMpO+VVv675Bn6L7M0DXT+hTYEwRKG/o920Gprfq+LmYez5g2pdTTRs6LXXrbqQ9mpRgPAMwKskxDmVn6XW7Uc7xK1sjYUWx/hLZ0vbSpjfrlaoIkdazRrYH4fHHmw4TSg7mld4jno7pUN0+71/gcx7Iht25sW0nT0C/mi7lTfPg6uvS9jt+aduEV9EhWik9q7LOy6Q1rGQ9aO4Pei4WmUYeHPpn060mRbIvVxXIoY2WCuAuuPOMxUinXtaWbjnVw2NGs7LxUvqhdfXov85pK9n9qAcJ3LpVyXRu6R1v6uzbqr7mlO5PAUqDJ6dXwdZn2h75YdQjblRg9LIMyBt+I8fUgaWhqxhq9EYAi2aZL+g77gZlNcL1Vxk/VZ23Up8YHx2oum45IjxaWu2fJ59XUF/ee+wS8nJCsLmZPy636Dze6V6YLITx4jJ1qgNgoNpAYdy5658xDMfVi9lra13kcduqMyWzntdg2aENvZ1rbEjqxbdGWftY0letSfXjUaPpxk60RNvCJ8SIRZZPCNvxemV4sexrGCSmfFXNPzw29LO+r3dqm70L9kj30NIm5uDjr0drST7khqIfGNxdMS/9ifL4815X6qvUhLjQGRYGqmiOe3YKuVDdL/Vhduz2WGC8kH3Vt1LcHKY65U7Sl20Z8OpKZ7ouaTOdWfZpldJl+PIRnHEovLgrklQ4zsPLeZbtfkTZi63KTis80M+nLw9YGXKzi2Ya26k9Jkpzkk2McSh9mfQeqJEkwVmlLn5XOoL5yHrc/K+mD+Mduv+6MDmucXpm+2tuAKgMzmlF/YXuLy7OdKoSfGYOSaRNlFGhCqh0hs/QWaUcb+nxd8gs08CQ2t+ln2llLEm3pc6xDm86bfPKMQenDrHsPwkCbW3WQnclK+pjXmRUGMIzXRv0Tg2+TjOTLPSKScZIn62zjuAbIzVAr5/6YqkOz0NB5lwOinw8b0Fe7h7yISlbMXsSySPn6RBhzfANk6FvsCE4ufM5W6cAO5SzdVOWHnncW6uyhrKHbfVjGoPRh1v0TkwMmTje8jlQYwIoG3FVhBx+RwWTZlZmsFs+YNQcI6dTM0Icyoz6SlZ0Laq15iMg8siNLxZkP8MAmyMCyHFIaE4AAAav5kSzd4YMyBqUPE9WDsj69h5Uhg+hVVsMY7PAH+7XV9iDoqFHtJWFFzv7mVv3BBxSYNQbIqDezMl2mV/sM1tH1cRiDsMUY+mvptjq/QGMMSh8mCoTMnVC236ushnFcZjHhL46hatxyJNGmtQVol517FisLDXp1jiBNgbUMyx+LdZBMoGVF+v46v0Bjn1D6MHEgt3yne1hhr999qldhDUPbzhUsi7LVStrQdTUqgySsfdher0xf7AMzBqUPk8SmO1ZORgcnCIYu9SqsMFZSEKNFHy8aBxdHo/ZiOJGtqPU+4lSWZ06Xqw4cWkYFyGupwsgNXcoKQ6tTKVYNju/MnfXKUhu6Qz5jPyd1++pZqV7BclmpfuTDgc44lCFcFG/l3N3d0sCbWdhHZ4QEq8FB8kwb9RKso2T+WDqJOs7WOB9UPW7GpxqyCZ67FMFXmhu2KNJ2k94ovjb0JVbamIwq6fxRjngQHGkkJqPoPheRXHM9N3Bi0iu65w39M+repk0uY1FK31Zdx60wVjq45JQ+O6RssUifj508ek4IF+Ih560tfVMbumWhoIeEsMCwf3nE4D7ETitAcG5s4WfVjSGHwWt6i03y4ONKHo69Q1ht1Cu5wUi8oYeG8OAxHmUTNpqPQ7mxZLyhy6OF1wmILYy7lLUy9mDfGGNqXQIEw3CAleNt9ZZnzo1xaD0wyHtjtmJ/8j4daPoU2Y+hzDR7EJRjp61t+kM2oI36G3IwbPhYlS7fLScOHDsX3fNi7bP/KL0ysQvFqoIFO/MMuVPHmXxWzM1Vcev17F6SCA4aqU3nNW3sxQWI1wyhKHqs4sQgt3S3MHQws5R54FMjIyGmy+4PhN2jvYLe19aAlPfKRoG80kmCLi0HSLe8L7vXNs06AZVBVs92XohLnNLvtjkqNiB1MG2ijAJNSI0TFu3M6drQr6Uu3CV051mBhd24lvCTXu7MZpa+Nm5DHY7dgtRpl7rq+I4WBfJKjxjueMfQl6U+V+/TARzDLBSnPXaEjqthEMYtDQTG9UwxHGhDv20zINdZlL7W8R0tCuSVnmTgiBgDttSLurvlYem7mBTQ6MUi3Y5VMmtAMNx+bw89Vxu6fHCAODa+uUyCW8GX6dVt7yOyHVlKHyV9rB4FGpNofsD4k9l0z+S96epdIneN9xDSE9UeIv0a1N1+7ovahrc3zd6NENLGiFqpRYEqMrGP6CHulzyGbmmT6pA+aaN+gx8eV6/GxPoQwkk7XlwUyCsdz8AY5C5clnQVrrhgDJGXFdzvMAaz061ZSZ/ENV8M/vEW2iOj2h4Fam87WgJjT5vzsmjFEcCotkeBIoxtREhU26NAG7H1ET5HtV2C5L5sU9TFusobz7EACYHNRvcHyK10J9cnmypAfTrgDRB+AZjZ7pV1n5S7cbrSqwa3T0e/LWN8DIax0yxj7MZg0PaYX0HWBtA1iD87zz3qGEyt8jUSY+zGYNbkxpgBDlSo9ARxTU54hE8I39ynFwpIhQe8pz1TJ58QvuHbRBI8asDu04FVf8urCN+J7NsqmrMlshWBrQhsRWAYgf8BKsghOCvf6TQAAAAASUVORK5CYII=;fontSize=12;fontStyle=1" parent="CxIQSj_tXQ3jHg43zF80-15" vertex="1">
          <mxGeometry x="230" y="1205.8523577235771" width="99.09" height="101.84" as="geometry" />
        </mxCell>
        <mxCell id="6alUi45Nj-87CM71QCCf-44" value="&lt;font style=&quot;font-size: 12px;&quot;&gt;&lt;font style=&quot;font-size: 12px&quot;&gt;AWSBackupSolutionCentralKey&lt;br style=&quot;font-size: 12px;&quot;&gt;&lt;/font&gt;AWS KMS Key&lt;/font&gt;" style="outlineConnect=0;gradientColor=#F54749;gradientDirection=north;fillColor=#C7131F;strokeColor=#ffffff;dashed=0;verticalLabelPosition=bottom;verticalAlign=top;align=center;html=1;fontSize=12;fontStyle=1;aspect=fixed;shape=mxgraph.aws4.resourceIcon;resIcon=mxgraph.aws4.key_management_service;labelBackgroundColor=none;" parent="CxIQSj_tXQ3jHg43zF80-15" vertex="1">
          <mxGeometry x="590" y="1270" width="60" height="60" as="geometry" />
        </mxCell>
        <mxCell id="6alUi45Nj-87CM71QCCf-49" style="edgeStyle=orthogonalEdgeStyle;rounded=0;orthogonalLoop=1;jettySize=auto;html=1;startArrow=none;startFill=0;endArrow=none;endFill=0;strokeColor=#000000;fontSize=16;opacity=30;exitX=0;exitY=0.5;exitDx=0;exitDy=0;fontStyle=1" parent="CxIQSj_tXQ3jHg43zF80-15" source="6alUi45Nj-87CM71QCCf-66" target="6alUi45Nj-87CM71QCCf-47" edge="1">
          <mxGeometry relative="1" as="geometry">
            <mxPoint x="280.67863608144654" y="778.7175166297116" as="sourcePoint" />
          </mxGeometry>
        </mxCell>
        <mxCell id="6alUi45Nj-87CM71QCCf-45" style="edgeStyle=orthogonalEdgeStyle;rounded=0;orthogonalLoop=1;jettySize=auto;html=1;startArrow=none;startFill=0;endArrow=none;endFill=0;strokeColor=#000000;fontSize=16;opacity=30;exitX=1;exitY=0.5;exitDx=0;exitDy=0;fontStyle=1" parent="CxIQSj_tXQ3jHg43zF80-15" target="6alUi45Nj-87CM71QCCf-44" edge="1">
          <mxGeometry relative="1" as="geometry">
            <mxPoint x="329.0899999999997" y="1253.7723577235774" as="sourcePoint" />
            <mxPoint x="539.9953246753248" y="1257.9411764705883" as="targetPoint" />
            <Array as="points">
              <mxPoint x="329" y="1280" />
            </Array>
          </mxGeometry>
        </mxCell>
        <mxCell id="6alUi45Nj-87CM71QCCf-54" value="" style="aspect=fixed;perimeter=ellipsePerimeter;html=1;align=center;shadow=0;dashed=0;fontColor=#4277BB;labelBackgroundColor=#ffffff;fontSize=16;spacingTop=3;image;image=img/lib/ibm/vpc/RegionTag.svg;fillColor=none;fontStyle=1" parent="CxIQSj_tXQ3jHg43zF80-15" vertex="1">
          <mxGeometry x="21.6991598261709" y="765.2755772357723" width="25.406498964613238" height="25.406498964613238" as="geometry" />
        </mxCell>
        <mxCell id="6alUi45Nj-87CM71QCCf-52" value="&lt;div&gt;&lt;font style=&quot;font-size: 12px&quot;&gt;AWSBackupSolutionCentralAccountRole&lt;/font&gt;&lt;/div&gt;&lt;div&gt;&lt;font style=&quot;font-size: 12px&quot;&gt;AWS Backup Service Role&lt;/font&gt;&lt;/div&gt;" style="outlineConnect=0;gradientColor=none;fillColor=#C7131F;strokeColor=none;dashed=0;verticalLabelPosition=bottom;verticalAlign=top;align=center;html=1;fontSize=16;fontStyle=1;aspect=fixed;pointerEvents=1;shape=mxgraph.aws4.role;dashPattern=1 1;labelBackgroundColor=none;fontFamily=Helvetica;" parent="CxIQSj_tXQ3jHg43zF80-15" vertex="1">
          <mxGeometry x="470" y="1190" width="70.92" height="40" as="geometry" />
        </mxCell>
        <mxCell id="NB6zla1_pPjd2Ij3sc6e-20" value="&lt;font&gt;Secondary Copy for AWS Backup Resources&lt;br&gt;&lt;/font&gt;" style="text;html=1;strokeColor=none;fillColor=none;align=center;verticalAlign=middle;whiteSpace=wrap;rounded=0;dashed=1;fontSize=16;opacity=20;fontColor=#000000;fontStyle=1" parent="CxIQSj_tXQ3jHg43zF80-15" vertex="1">
          <mxGeometry x="13.170000000000002" y="759.541593495935" width="412.8" height="49.79512195121951" as="geometry" />
        </mxCell>
        <mxCell id="vsZvOWJckSr3CKBYO4Zu-8" style="edgeStyle=orthogonalEdgeStyle;rounded=0;orthogonalLoop=1;jettySize=auto;html=1;" parent="CxIQSj_tXQ3jHg43zF80-15" source="vsZvOWJckSr3CKBYO4Zu-4" target="vsZvOWJckSr3CKBYO4Zu-5" edge="1">
          <mxGeometry relative="1" as="geometry" />
        </mxCell>
        <mxCell id="vsZvOWJckSr3CKBYO4Zu-9" style="edgeStyle=orthogonalEdgeStyle;rounded=0;orthogonalLoop=1;jettySize=auto;html=1;" parent="CxIQSj_tXQ3jHg43zF80-15" source="vsZvOWJckSr3CKBYO4Zu-4" target="6alUi45Nj-87CM71QCCf-66" edge="1">
          <mxGeometry relative="1" as="geometry">
            <Array as="points">
              <mxPoint x="188" y="1050" />
              <mxPoint x="280" y="1050" />
            </Array>
          </mxGeometry>
        </mxCell>
        <mxCell id="vsZvOWJckSr3CKBYO4Zu-10" value="select restore testing resources" style="edgeLabel;html=1;align=center;verticalAlign=middle;resizable=0;points=[];" parent="vsZvOWJckSr3CKBYO4Zu-9" vertex="1" connectable="0">
          <mxGeometry x="0.2705" y="1" relative="1" as="geometry">
            <mxPoint as="offset" />
          </mxGeometry>
        </mxCell>
        <mxCell id="vsZvOWJckSr3CKBYO4Zu-13" value="test backup restore" style="edgeStyle=orthogonalEdgeStyle;rounded=0;orthogonalLoop=1;jettySize=auto;html=1;dashed=1;" parent="CxIQSj_tXQ3jHg43zF80-15" source="vsZvOWJckSr3CKBYO4Zu-4" target="vsZvOWJckSr3CKBYO4Zu-11" edge="1">
          <mxGeometry relative="1" as="geometry">
            <Array as="points">
              <mxPoint x="330" y="935" />
              <mxPoint x="330" y="990" />
            </Array>
          </mxGeometry>
        </mxCell>
        <mxCell id="vsZvOWJckSr3CKBYO4Zu-4" value="&lt;font style=&quot;font-size: 14px&quot;&gt;aws_backup_restore_test_plan&lt;br&gt;Restore test plan &amp;amp; selection&lt;/font&gt;" style="pointerEvents=1;shadow=0;dashed=0;html=1;strokeColor=none;fillColor=#434445;aspect=fixed;labelPosition=center;verticalLabelPosition=bottom;verticalAlign=top;align=center;outlineConnect=0;shape=mxgraph.vvd.recovery_plan;" parent="CxIQSj_tXQ3jHg43zF80-15" vertex="1">
          <mxGeometry x="170" y="910.0041463414634" width="36.5" height="50" as="geometry" />
        </mxCell>
        <mxCell id="vsZvOWJckSr3CKBYO4Zu-42" style="edgeStyle=orthogonalEdgeStyle;rounded=0;orthogonalLoop=1;jettySize=auto;html=1;dashed=1;" parent="CxIQSj_tXQ3jHg43zF80-15" source="vsZvOWJckSr3CKBYO4Zu-5" target="vsZvOWJckSr3CKBYO4Zu-11" edge="1">
          <mxGeometry relative="1" as="geometry" />
        </mxCell>
        <mxCell id="vsZvOWJckSr3CKBYO4Zu-43" value="Create / destroy test resources" style="edgeLabel;html=1;align=center;verticalAlign=middle;resizable=0;points=[];" parent="vsZvOWJckSr3CKBYO4Zu-42" vertex="1" connectable="0">
          <mxGeometry x="-0.2733" relative="1" as="geometry">
            <mxPoint as="offset" />
          </mxGeometry>
        </mxCell>
        <mxCell id="vsZvOWJckSr3CKBYO4Zu-5" value="&lt;div style=&quot;font-size: 12px;&quot;&gt;&lt;font style=&quot;font-size: 12px&quot;&gt;AWSBackupSolutionRestoreTestRole&lt;/font&gt;&lt;/div&gt;&lt;div style=&quot;font-size: 12px;&quot;&gt;&lt;br style=&quot;font-size: 12px;&quot;&gt;&lt;/div&gt;" style="outlineConnect=0;gradientColor=none;fillColor=#C7131F;strokeColor=none;dashed=0;verticalLabelPosition=bottom;verticalAlign=top;align=center;html=1;fontSize=12;fontStyle=1;aspect=fixed;pointerEvents=1;shape=mxgraph.aws4.role;dashPattern=1 1;labelBackgroundColor=none;fontFamily=Helvetica;" parent="CxIQSj_tXQ3jHg43zF80-15" vertex="1">
          <mxGeometry x="154" y="810.0021951219512" width="70.92" height="40" as="geometry" />
        </mxCell>
        <mxCell id="vsZvOWJckSr3CKBYO4Zu-11" value="Restore Testing Resources" style="outlineConnect=0;fontColor=#232F3E;gradientColor=none;fillColor=#D86613;strokeColor=none;dashed=0;verticalLabelPosition=bottom;verticalAlign=top;align=center;html=1;fontSize=12;fontStyle=0;aspect=fixed;pointerEvents=1;shape=mxgraph.aws4.instances;" parent="CxIQSj_tXQ3jHg43zF80-15" vertex="1">
          <mxGeometry x="430" y="980" width="48" height="48" as="geometry" />
        </mxCell>
        <mxCell id="vsZvOWJckSr3CKBYO4Zu-22" value="&lt;div style=&quot;font-size: 12px;&quot;&gt;&lt;font style=&quot;font-size: 12px&quot;&gt;AWSBackupSolutionRestoreTestValidationRole&lt;/font&gt;&lt;/div&gt;&lt;div style=&quot;font-size: 12px;&quot;&gt;&lt;br style=&quot;font-size: 12px;&quot;&gt;&lt;/div&gt;" style="outlineConnect=0;gradientColor=none;fillColor=#C7131F;strokeColor=none;dashed=0;verticalLabelPosition=bottom;verticalAlign=top;align=center;html=1;fontSize=12;fontStyle=1;aspect=fixed;pointerEvents=1;shape=mxgraph.aws4.role;dashPattern=1 1;labelBackgroundColor=none;fontFamily=Helvetica;" parent="CxIQSj_tXQ3jHg43zF80-15" vertex="1">
          <mxGeometry x="590" y="880" width="70.92" height="40" as="geometry" />
        </mxCell>
        <mxCell id="vsZvOWJckSr3CKBYO4Zu-26" style="edgeStyle=orthogonalEdgeStyle;rounded=0;orthogonalLoop=1;jettySize=auto;html=1;dashed=1;" parent="CxIQSj_tXQ3jHg43zF80-15" source="vsZvOWJckSr3CKBYO4Zu-24" target="vsZvOWJckSr3CKBYO4Zu-11" edge="1">
          <mxGeometry relative="1" as="geometry" />
        </mxCell>
        <mxCell id="vsZvOWJckSr3CKBYO4Zu-27" value="Validate resources" style="edgeLabel;html=1;align=center;verticalAlign=middle;resizable=0;points=[];" parent="vsZvOWJckSr3CKBYO4Zu-26" vertex="1" connectable="0">
          <mxGeometry x="-0.0033" y="2" relative="1" as="geometry">
            <mxPoint as="offset" />
          </mxGeometry>
        </mxCell>
        <mxCell id="vsZvOWJckSr3CKBYO4Zu-34" style="edgeStyle=orthogonalEdgeStyle;rounded=0;orthogonalLoop=1;jettySize=auto;html=1;entryX=0.75;entryY=0;entryDx=0;entryDy=0;entryPerimeter=0;dashed=1;" parent="CxIQSj_tXQ3jHg43zF80-15" source="vsZvOWJckSr3CKBYO4Zu-24" target="vsZvOWJckSr3CKBYO4Zu-30" edge="1">
          <mxGeometry relative="1" as="geometry">
            <Array as="points">
              <mxPoint x="630" y="1080" />
              <mxPoint x="428" y="1080" />
            </Array>
          </mxGeometry>
        </mxCell>
        <mxCell id="vsZvOWJckSr3CKBYO4Zu-35" value="Notify validation result" style="edgeLabel;html=1;align=center;verticalAlign=middle;resizable=0;points=[];" parent="vsZvOWJckSr3CKBYO4Zu-34" vertex="1" connectable="0">
          <mxGeometry x="0.3655" y="1" relative="1" as="geometry">
            <mxPoint as="offset" />
          </mxGeometry>
        </mxCell>
        <mxCell id="vsZvOWJckSr3CKBYO4Zu-41" style="edgeStyle=orthogonalEdgeStyle;rounded=0;orthogonalLoop=1;jettySize=auto;html=1;dashed=1;" parent="CxIQSj_tXQ3jHg43zF80-15" source="vsZvOWJckSr3CKBYO4Zu-24" target="vsZvOWJckSr3CKBYO4Zu-22" edge="1">
          <mxGeometry relative="1" as="geometry" />
        </mxCell>
        <mxCell id="vsZvOWJckSr3CKBYO4Zu-24" value="&lt;div style=&quot;font-size: 12px;&quot;&gt;&lt;b style=&quot;font-size: 12px;&quot;&gt;AWSBackupSolutionRestoreTestValidation&lt;/b&gt;&lt;/div&gt;" style="points=[[0,0,0],[0.25,0,0],[0.5,0,0],[0.75,0,0],[1,0,0],[0,1,0],[0.25,1,0],[0.5,1,0],[0.75,1,0],[1,1,0],[0,0.25,0],[0,0.5,0],[0,0.75,0],[1,0.25,0],[1,0.5,0],[1,0.75,0]];outlineConnect=0;fontColor=#232F3E;gradientColor=#F78E04;gradientDirection=north;fillColor=#D05C17;strokeColor=#ffffff;dashed=0;verticalLabelPosition=bottom;verticalAlign=top;align=center;html=1;fontSize=12;fontStyle=0;aspect=fixed;shape=mxgraph.aws4.resourceIcon;resIcon=mxgraph.aws4.lambda;" parent="CxIQSj_tXQ3jHg43zF80-15" vertex="1">
          <mxGeometry x="620" y="990" width="50" height="50" as="geometry" />
        </mxCell>
        <mxCell id="vsZvOWJckSr3CKBYO4Zu-31" style="edgeStyle=orthogonalEdgeStyle;rounded=0;orthogonalLoop=1;jettySize=auto;html=1;dashed=1;startArrow=classic;startFill=1;endArrow=none;endFill=0;" parent="CxIQSj_tXQ3jHg43zF80-15" source="vsZvOWJckSr3CKBYO4Zu-28" target="vsZvOWJckSr3CKBYO4Zu-30" edge="1">
          <mxGeometry relative="1" as="geometry" />
        </mxCell>
        <mxCell id="vsZvOWJckSr3CKBYO4Zu-32" value="Restore Events" style="edgeLabel;html=1;align=center;verticalAlign=middle;resizable=0;points=[];" parent="vsZvOWJckSr3CKBYO4Zu-31" vertex="1" connectable="0">
          <mxGeometry x="-0.1521" relative="1" as="geometry">
            <mxPoint x="-1" as="offset" />
          </mxGeometry>
        </mxCell>
        <mxCell id="vsZvOWJckSr3CKBYO4Zu-33" value="Initiate Restore Validation" style="edgeStyle=orthogonalEdgeStyle;rounded=0;orthogonalLoop=1;jettySize=auto;html=1;dashed=1;entryX=0.5;entryY=1;entryDx=0;entryDy=0;entryPerimeter=0;" parent="CxIQSj_tXQ3jHg43zF80-15" source="vsZvOWJckSr3CKBYO4Zu-28" target="vsZvOWJckSr3CKBYO4Zu-24" edge="1">
          <mxGeometry x="-0.5" relative="1" as="geometry">
            <mxPoint as="offset" />
          </mxGeometry>
        </mxCell>
        <mxCell id="vsZvOWJckSr3CKBYO4Zu-28" value="EventBridge&lt;br style=&quot;font-size: 12px;&quot;&gt;Monitor Restore Jobs" style="points=[[0,0,0],[0.25,0,0],[0.5,0,0],[0.75,0,0],[1,0,0],[0,1,0],[0.25,1,0],[0.5,1,0],[0.75,1,0],[1,1,0],[0,0.25,0],[0,0.5,0],[0,0.75,0],[1,0.25,0],[1,0.5,0],[1,0.75,0]];outlineConnect=0;fontColor=#232F3E;gradientColor=#F34482;gradientDirection=north;fillColor=#BC1356;strokeColor=#ffffff;dashed=0;verticalLabelPosition=bottom;verticalAlign=top;align=center;html=1;fontSize=12;fontStyle=0;aspect=fixed;shape=mxgraph.aws4.resourceIcon;resIcon=mxgraph.aws4.eventbridge;" parent="CxIQSj_tXQ3jHg43zF80-15" vertex="1">
          <mxGeometry x="620" y="1120" width="50" height="50" as="geometry" />
        </mxCell>
        <mxCell id="vsZvOWJckSr3CKBYO4Zu-30" value="AWS Backup" style="points=[[0,0,0],[0.25,0,0],[0.5,0,0],[0.75,0,0],[1,0,0],[0,1,0],[0.25,1,0],[0.5,1,0],[0.75,1,0],[1,1,0],[0,0.25,0],[0,0.5,0],[0,0.75,0],[1,0.25,0],[1,0.5,0],[1,0.75,0]];outlineConnect=0;fontColor=#232F3E;gradientColor=#60A337;gradientDirection=north;fillColor=#277116;strokeColor=#ffffff;dashed=0;verticalLabelPosition=bottom;verticalAlign=top;align=center;html=1;fontSize=12;fontStyle=0;aspect=fixed;shape=mxgraph.aws4.resourceIcon;resIcon=mxgraph.aws4.backup;" parent="CxIQSj_tXQ3jHg43zF80-15" vertex="1">
          <mxGeometry x="390" y="1120" width="50" height="50" as="geometry" />
        </mxCell>
        <mxCell id="aefqfl1ly7InYCL16Vul-15" value="" style="whiteSpace=wrap;html=1;fillColor=none;fontSize=16;dashed=1;dashPattern=1 1;strokeColor=#00cc00;spacingTop=0;fontStyle=1" parent="CxIQSj_tXQ3jHg43zF80-15" vertex="1">
          <mxGeometry x="10" y="80" width="730" height="330" as="geometry" />
        </mxCell>
        <mxCell id="vsZvOWJckSr3CKBYO4Zu-73" style="edgeStyle=orthogonalEdgeStyle;rounded=0;orthogonalLoop=1;jettySize=auto;html=1;dashed=1;startArrow=none;startFill=0;endArrow=classic;endFill=1;fontSize=12;" parent="CxIQSj_tXQ3jHg43zF80-15" source="OqShdTPiF2n6pkkPBl1H-1" target="vsZvOWJckSr3CKBYO4Zu-72" edge="1">
          <mxGeometry relative="1" as="geometry">
            <Array as="points">
              <mxPoint x="287" y="280" />
            </Array>
          </mxGeometry>
        </mxCell>
        <mxCell id="OqShdTPiF2n6pkkPBl1H-1" value="&lt;p class=&quot;p1&quot; style=&quot;margin: 0px ; font-stretch: normal ; line-height: normal ; font-family: &amp;quot;helvetica neue&amp;quot; ; color: rgb(0 , 0 , 0)&quot;&gt;&lt;font style=&quot;font-size: 16px&quot;&gt;backup-recovery-aws-backup&lt;/font&gt;&lt;/p&gt;&lt;p class=&quot;p1&quot; style=&quot;margin: 0px ; font-stretch: normal ; line-height: normal ; font-family: &amp;quot;helvetica neue&amp;quot; ; color: rgb(0 , 0 , 0)&quot;&gt;&lt;font style=&quot;font-size: 16px&quot;&gt;AWS CodePipeline&lt;/font&gt;&lt;/p&gt;" style="points=[[0,0,0],[0.25,0,0],[0.5,0,0],[0.75,0,0],[1,0,0],[0,1,0],[0.25,1,0],[0.5,1,0],[0.75,1,0],[1,1,0],[0,0.25,0],[0,0.5,0],[0,0.75,0],[1,0.25,0],[1,0.5,0],[1,0.75,0]];outlineConnect=0;fontColor=#232F3E;gradientColor=#4D72F3;gradientDirection=north;fillColor=#3334B9;strokeColor=#ffffff;dashed=0;verticalLabelPosition=bottom;verticalAlign=top;align=center;html=1;fontSize=12;fontStyle=1;aspect=fixed;shape=mxgraph.aws4.resourceIcon;resIcon=mxgraph.aws4.codepipeline;" parent="CxIQSj_tXQ3jHg43zF80-15" vertex="1">
          <mxGeometry x="360" y="252.47000000000003" width="114.22" height="114.22" as="geometry" />
        </mxCell>
        <mxCell id="vsZvOWJckSr3CKBYO4Zu-72" value="&lt;b&gt;&lt;font style=&quot;font-size: 12px&quot;&gt;S3 deployment bucket&lt;br&gt;Shared with organization&lt;/font&gt;&lt;/b&gt;" style="outlineConnect=0;fontColor=#232F3E;gradientColor=none;fillColor=#277116;strokeColor=none;dashed=0;verticalLabelPosition=bottom;verticalAlign=top;align=center;html=1;fontSize=12;fontStyle=0;aspect=fixed;pointerEvents=1;shape=mxgraph.aws4.bucket;" parent="CxIQSj_tXQ3jHg43zF80-15" vertex="1">
          <mxGeometry x="250" y="140" width="75" height="78" as="geometry" />
        </mxCell>
        <mxCell id="v9B4CywxQethZYfmsZQ_-68" style="edgeStyle=orthogonalEdgeStyle;rounded=0;orthogonalLoop=1;jettySize=auto;html=1;startArrow=none;startFill=0;endArrow=classic;endFill=1;" parent="CxIQSj_tXQ3jHg43zF80-15" source="v9B4CywxQethZYfmsZQ_-52" target="v9B4CywxQethZYfmsZQ_-8" edge="1">
          <mxGeometry relative="1" as="geometry">
            <Array as="points">
              <mxPoint x="570" y="497" />
              <mxPoint x="570" y="497" />
            </Array>
          </mxGeometry>
        </mxCell>
        <mxCell id="v9B4CywxQethZYfmsZQ_-52" value="&lt;div&gt;&lt;/div&gt;&lt;font style=&quot;font-size: 12px&quot;&gt;aws-backup-report-plan&lt;br&gt;AWS Backup Audit Reports&lt;/font&gt;" style="outlineConnect=0;gradientColor=none;fillColor=#BC1356;strokeColor=none;dashed=0;verticalLabelPosition=bottom;verticalAlign=top;align=center;html=1;fontSize=12;fontStyle=1;aspect=fixed;pointerEvents=1;shape=mxgraph.aws4.stack;labelBackgroundColor=none;fontFamily=Helvetica;" parent="CxIQSj_tXQ3jHg43zF80-15" vertex="1">
          <mxGeometry x="320" y="460" width="76.26" height="74.31" as="geometry" />
        </mxCell>
        <mxCell id="v9B4CywxQethZYfmsZQ_-7" value="" style="group" parent="CxIQSj_tXQ3jHg43zF80-15" vertex="1" connectable="0">
          <mxGeometry x="580" y="460" width="56.799999999999955" height="70.79999999999995" as="geometry" />
        </mxCell>
        <mxCell id="v9B4CywxQethZYfmsZQ_-8" value="" style="shadow=0;dashed=0;html=1;strokeColor=none;fillColor=#4495D1;labelPosition=center;verticalLabelPosition=bottom;verticalAlign=top;align=center;outlineConnect=0;shape=mxgraph.veeam.2d.report;" parent="v9B4CywxQethZYfmsZQ_-7" vertex="1">
          <mxGeometry width="36.8" height="50.8" as="geometry" />
        </mxCell>
        <mxCell id="v9B4CywxQethZYfmsZQ_-9" value="" style="shadow=0;dashed=0;html=1;strokeColor=none;fillColor=#4495D1;labelPosition=center;verticalLabelPosition=bottom;verticalAlign=top;align=center;outlineConnect=0;shape=mxgraph.veeam.2d.report;" parent="v9B4CywxQethZYfmsZQ_-7" vertex="1">
          <mxGeometry x="10" y="10" width="36.8" height="50.8" as="geometry" />
        </mxCell>
        <mxCell id="v9B4CywxQethZYfmsZQ_-10" value="AWS Backup&lt;br&gt;Jobs / Compliance&lt;br&gt;&amp;nbsp;Reports" style="shadow=0;dashed=0;html=1;strokeColor=none;fillColor=#4495D1;labelPosition=center;verticalLabelPosition=bottom;verticalAlign=top;align=center;outlineConnect=0;shape=mxgraph.veeam.2d.report;" parent="v9B4CywxQethZYfmsZQ_-7" vertex="1">
          <mxGeometry x="20" y="20" width="36.8" height="50.8" as="geometry" />
        </mxCell>
        <mxCell id="CxIQSj_tXQ3jHg43zF80-18" value="" style="group;align=left;fontStyle=1" parent="1" vertex="1" connectable="0">
          <mxGeometry x="-743" y="130" width="590" height="1380" as="geometry" />
        </mxCell>
        <mxCell id="CxIQSj_tXQ3jHg43zF80-19" value="Example: Root OU" style="fillColor=#EFF0F3;strokeColor=none;dashed=0;verticalAlign=top;fontStyle=1;fontColor=#232F3D;fontSize=16;" parent="CxIQSj_tXQ3jHg43zF80-18" vertex="1">
          <mxGeometry width="590" height="1380.0000000000002" as="geometry" />
        </mxCell>
        <mxCell id="CxIQSj_tXQ3jHg43zF80-20" value="" style="outlineConnect=0;fontColor=#232F3E;gradientColor=none;fillColor=#BC1356;strokeColor=none;dashed=0;verticalLabelPosition=bottom;verticalAlign=top;align=center;html=1;fontSize=12;fontStyle=1;aspect=fixed;pointerEvents=1;shape=mxgraph.aws4.organizations_organizational_unit;" parent="CxIQSj_tXQ3jHg43zF80-18" vertex="1">
          <mxGeometry width="34.92" height="30" as="geometry" />
        </mxCell>
        <mxCell id="OqShdTPiF2n6pkkPBl1H-18" value="&lt;font&gt;Cross-Region and Cross-Account Backup Copy&lt;/font&gt;" style="text;html=1;strokeColor=none;fillColor=none;align=center;verticalAlign=middle;whiteSpace=wrap;rounded=0;dashed=1;fontSize=16;opacity=20;fontColor=#000000;fontStyle=1" parent="1" vertex="1">
          <mxGeometry x="320.00000000000006" y="1560" width="207.2" height="33" as="geometry" />
        </mxCell>
        <mxCell id="NB6zla1_pPjd2Ij3sc6e-19" value="&lt;font color=&quot;#212121&quot;&gt;Solution Home Region&lt;br&gt;&lt;/font&gt;" style="text;html=1;strokeColor=none;fillColor=none;align=center;verticalAlign=middle;whiteSpace=wrap;rounded=0;dashed=1;fontSize=16;opacity=20;fontStyle=1" parent="1" vertex="1">
          <mxGeometry x="-1540" y="216" width="245.71" height="33" as="geometry" />
        </mxCell>
        <mxCell id="CxIQSj_tXQ3jHg43zF80-12" value="" style="group;fontStyle=1" parent="1" vertex="1" connectable="0">
          <mxGeometry x="-99" y="432" width="610" height="668" as="geometry" />
        </mxCell>
        <mxCell id="CxIQSj_tXQ3jHg43zF80-13" value="Example:Â  Development OU" style="fillColor=#EFF0F3;strokeColor=none;dashed=0;verticalAlign=top;fontStyle=1;fontColor=#232F3D;fontSize=16;" parent="CxIQSj_tXQ3jHg43zF80-12" vertex="1">
          <mxGeometry x="-30" y="-39.15862068965517" width="640" height="707.1586206896552" as="geometry" />
        </mxCell>
        <mxCell id="6alUi45Nj-87CM71QCCf-10" value="&lt;span&gt;OU Member Account&lt;/span&gt;" style="points=[[0,0],[0.25,0],[0.5,0],[0.75,0],[1,0],[1,0.25],[1,0.5],[1,0.75],[1,1],[0.75,1],[0.5,1],[0.25,1],[0,1],[0,0.75],[0,0.5],[0,0.25]];outlineConnect=0;gradientColor=none;html=1;whiteSpace=wrap;fontSize=16;fontStyle=1;shape=mxgraph.aws4.group;grIcon=mxgraph.aws4.group_aws_cloud;strokeColor=#232F3E;fillColor=none;verticalAlign=top;align=left;spacingLeft=30;fontColor=#232F3E;dashed=0;" parent="CxIQSj_tXQ3jHg43zF80-12" vertex="1">
          <mxGeometry x="-20" y="3.4551724137930933" width="620" height="641.5103448275862" as="geometry" />
        </mxCell>
        <mxCell id="6alUi45Nj-87CM71QCCf-9" value="" style="whiteSpace=wrap;html=1;fillColor=none;fontSize=16;dashed=1;dashPattern=1 1;strokeColor=#00cc00;fontStyle=1" parent="CxIQSj_tXQ3jHg43zF80-12" vertex="1">
          <mxGeometry x="-7" y="41.46" width="587" height="588.54" as="geometry" />
        </mxCell>
        <mxCell id="6alUi45Nj-87CM71QCCf-51" value="&lt;div style=&quot;font-size: 12px;&quot;&gt;&lt;font style=&quot;font-size: 12px;&quot;&gt;&amp;nbsp; AWSBackupSolutionRole&lt;/font&gt;&lt;/div&gt;&lt;div style=&quot;font-size: 12px;&quot;&gt;&lt;font style=&quot;font-size: 12px;&quot;&gt;&amp;nbsp; (AWS Backup Service Role)&lt;/font&gt;&lt;/div&gt;" style="outlineConnect=0;gradientColor=none;fillColor=#C7131F;strokeColor=none;dashed=0;verticalLabelPosition=bottom;verticalAlign=top;align=center;html=1;fontSize=12;fontStyle=1;aspect=fixed;pointerEvents=1;shape=mxgraph.aws4.role;dashPattern=1 1;labelBackgroundColor=none;fontFamily=Helvetica;" parent="CxIQSj_tXQ3jHg43zF80-12" vertex="1">
          <mxGeometry x="59.10430769230769" y="238.00075862068968" width="78.44" height="44.24" as="geometry" />
        </mxCell>
        <mxCell id="NB6zla1_pPjd2Ij3sc6e-22" style="edgeStyle=orthogonalEdgeStyle;rounded=0;orthogonalLoop=1;jettySize=auto;html=1;fontSize=16;fontStyle=1;startArrow=classic;startFill=1;dashed=1;" parent="CxIQSj_tXQ3jHg43zF80-12" source="6alUi45Nj-87CM71QCCf-65" target="kiC8-eNV-VLsFGezIAMi-6" edge="1">
          <mxGeometry relative="1" as="geometry">
            <mxPoint x="259" y="225.73793103448278" as="sourcePoint" />
            <mxPoint x="160.2538461538461" y="400.8" as="targetPoint" />
            <Array as="points">
              <mxPoint x="259" y="401" />
            </Array>
          </mxGeometry>
        </mxCell>
        <mxCell id="kiC8-eNV-VLsFGezIAMi-5" value="backup /&lt;br&gt;restore" style="edgeLabel;html=1;align=center;verticalAlign=middle;resizable=0;points=[];" parent="NB6zla1_pPjd2Ij3sc6e-22" vertex="1" connectable="0">
          <mxGeometry x="0.7145" relative="1" as="geometry">
            <mxPoint x="19.31" as="offset" />
          </mxGeometry>
        </mxCell>
        <mxCell id="NB6zla1_pPjd2Ij3sc6e-33" style="edgeStyle=none;rounded=0;orthogonalLoop=1;jettySize=auto;html=1;endArrow=none;endFill=0;fontSize=16;fontColor=#000000;fontStyle=1" parent="CxIQSj_tXQ3jHg43zF80-12" edge="1">
          <mxGeometry relative="1" as="geometry">
            <mxPoint x="294.59953846153803" y="125.45785542099715" as="sourcePoint" />
            <mxPoint x="409.27692307692314" y="123.97922497711885" as="targetPoint" />
          </mxGeometry>
        </mxCell>
        <mxCell id="NB6zla1_pPjd2Ij3sc6e-31" style="edgeStyle=none;rounded=0;orthogonalLoop=1;jettySize=auto;html=1;fontSize=16;fontColor=#000000;endArrow=none;endFill=0;fontStyle=1" parent="CxIQSj_tXQ3jHg43zF80-12" edge="1">
          <mxGeometry relative="1" as="geometry">
            <mxPoint x="134.833076923077" y="126.9823742721174" as="sourcePoint" />
            <mxPoint x="211.3995384615382" y="126.3282170887631" as="targetPoint" />
          </mxGeometry>
        </mxCell>
        <mxCell id="6alUi45Nj-87CM71QCCf-62" value="Backup Plan" style="shape=image;verticalLabelPosition=bottom;labelBackgroundColor=none;verticalAlign=top;aspect=fixed;imageAspect=0;image=data:image/png,iVBORw0KGgoAAAANSUhEUgAAAEoAAABKCAYAAAAc0MJxAAAHsElEQVR4Ae1bW4gdNRg+23q/YFFB0KKItUotuzvzZ6kiwoq1pbV7zmTa1RdFUShCUaiWXtSlmeS0Xh5U8EVFUaQPPrRW0T6IKIK1QvFSBW8UvKA+eClUQVuxVflnN7uZOclMMmfO7ChnYZnkT/J/X77J/JNJchqN/l9fgb4CfQX+JwoEYvElYRsOhoL8U6d/yuHL5sSQVxuZAzGypU4CqVwoJ4dqI1YYEaaSq1u6NmIlhIoIm+2hnuAzFQ5qIVaCWE2FwlE+62LVWigOu1EgGQ5mVaxaCxURhsG8FmK5CHUDI4upIOuo8DZR4YfLNgyeXnZM0/GphVg6YunOL2dXnE05vCwfAXmlnPwc8JEb0/W7yZv4zLpYJmKys6Ns9BQq4AMpju5aplhZfGZVrCxiKFbYJhsT4mCAjeDxQMC30o4jq6zHMI/PrImVR4wK+EQK0hL++pmRNjwvIZbwQ1nWzTWPD/qeFbHyiIWCHJVCjbLheaoIOLJkGQZ4taxoOsHH4fsT34z43VoUN7ddgphmwomP1bQYE96Q6jDksHu6TJB1alnRdDffnrQNm4vi5rbLEyrkZKcUIxDkQzrhDeHIwsdQ2vGKU4dcMIsKXa1maG60BaRdlTyhmswjoYBjqijpNE4d7NDKr5XHvzREG6BAeHeYxMKpA86zSiPk6MiGv6NLfXVboHhkcbITYxblcCR+G7bJRpxn6T1XY7Xl3zWbyoC6Zqp3UBn/XgI1N152Jgb5kJOr6YR3VWu7t6isiamUrZf8JUZ8LRMI1sKJTUaaVMDzISdfpYO+zFMOX9DIf5JG5PpGozGQIOSYKZN/JnQZQBinQgH3UkF+kGJYX9twEF8WjfHG3EyihsIy+BtcJ80uQHFdXGNX5ithBNeaRk8c9Dn5jArYG0b+u7izQjn5UyciFeSjJvMHk+zycy78871l1HABUjuILsM2uY9yOK7aKYfvaeS3w4nhkVE2ekIaesVdC05ew/1rAk4eUxfkpnwcDSJyS7pNVt6Ff5af3DIXIFWQsO0/kcgL8gvl3p0Yp3JBpyqMMTiNCnI/FfCH6otyuMfWhwt/W5/aei5AamfUNI3gnea2JedpASyMlA0tVFcp0HfA/dssmjZc+Nv4M9ZxAVLFkWnKya4yJp2jbNEZlJO3pV9ctcDlFCPxqQIX/nm+MstdgJROdG6/KwE+EzCjEMUKBRyYwYEDujinunDhr7ZzTrsAmd5YccdKEArJ4+oB5fC7FCvg/tqsTrnwz/KTW+YCFEbedqNYJQmFhHERUApFOXzTYI05po648Df5sLJXBmTFZrLS+Pr5p1JOfpJitRhZaWpeGf/KgEw9NdhpRB6RQgURPGOoVs+3nolsL+yticElUqj48TOAVHajKwMydNRoHm/MVSeipsXByvhXBmRUxFxABXwsR5VpTlUZ/8qAzHoYS0LhvyGFmlqS6ahbGX8boJbw1lDh7w8FvF/W/l1HjzUGKsjrUqiADS3TVKlXMA+4f7MkTAXs0BHuhW3y5kwewh1j/pU6DJsbrWvnbLMBitec5DFB4e93BinYQF2GWcEG5+vc2PDXtXO22QBdt+Xyc6ZHFIcjOCF0BnJsgCsKM5jkkKm5DX9TWye7LRDl8Kkk3or8MSeQApVbHDZIPNy6N7mw5W9qb223BcLvPEl8tRh51RqgWMUBysnnEi9rbcqWfzEaSitboCbzF8hlXyrg75CBr7gpNdmK/JukSKGAw1lbXLb8uyboAkQ5vCQ7QAXZV3TnJIv00k1wVijId9M4jGzLqu/CP8tPbpkL0GoxfKm6zNJi8GAugFuFAfX0DBXwIwqX5cKFf5af3DJXoPT5Jcrh7lwQywrqwbR4REU+zWvqyj/Pn7G8ANAA5fCafDTwSqORh7IW14zgUwWTG6j+C0mf5NG8dlhegL+N2846RYAmt5lgb6JjguzDQ2adCNmWgJFR9Q2HPgNBXrSNf0X4ZzMylBYFindNhP9KQiwOx3FXBr/Lsvb38C02+f0Ib6rt4zQnT9mKhF0qyt8gh9ncFRBrzMHj1epmgOw4FeQ3yuEtGsHT+GgGzH845PAcjUbeUw/QTtfn5FfKvdvNTPUlXfHXu9RbywAaE4MX49RBzrNk5+2ucIxy8qzpW07PesZaBv8ZbxmpMoFiwXCtuw1f54mEi3KB8LemBWoy73w8n6BSXtUeumCcLTpJtcl0mfylT+21V0CrtsKF+E0Y/8ioDZvxFDGN4NYW85aOsYXn6shgGzwZEwjYI8Va2fYuQuHxTasTq1f8O/hVBtSBnDTEM3Ll8BmKFa8gqKOTk53JVv+VYJ5m3WW+xSBSH1nKyV8yj2etWpG/PA1R2Y2uDCjdQ0M+LRYKZRIJXVTGvzIggzBpcxyTBByWIykWSpB9Mmal61fGvzKgdA81eRm4VZFkWg3watPK+FcGpPZOk46DuRK4pw7975BCxSOLk13pppXxrwwo3UNNXnJRY5KMWWjTbVnJNrGgJZ6o6aBXGVAHst4QtOGB9NstEDChEwk9VMa/MiC9Ll1bK+NfGVDXkugdVMY/AeTw01Q1yNYm3csYlV7arU2nC9w07It+3JVg7eqnqQU607MbEf+mpoc/vi5B676LvgJ9BfoKuCjwL+pe5/c5jEK+AAAAAElFTkSuQmCC;fontSize=12;fontStyle=1" parent="CxIQSj_tXQ3jHg43zF80-12" vertex="1">
          <mxGeometry x="57.72307692307692" y="80.62068965517241" width="81.11" height="81.11" as="geometry" />
        </mxCell>
        <mxCell id="OqShdTPiF2n6pkkPBl1H-16" style="edgeStyle=orthogonalEdgeStyle;rounded=0;orthogonalLoop=1;jettySize=auto;html=1;dashed=1;fontStyle=1;exitX=0.679;exitY=1.008;exitDx=0;exitDy=0;exitPerimeter=0;" parent="CxIQSj_tXQ3jHg43zF80-12" source="6alUi45Nj-87CM71QCCf-62" target="6alUi45Nj-87CM71QCCf-51" edge="1">
          <mxGeometry relative="1" as="geometry">
            <mxPoint x="98" y="216.5241379310345" as="sourcePoint" />
            <Array as="points">
              <mxPoint x="113" y="228" />
              <mxPoint x="113" y="228" />
            </Array>
          </mxGeometry>
        </mxCell>
        <mxCell id="6alUi45Nj-87CM71QCCf-12" value="" style="aspect=fixed;perimeter=ellipsePerimeter;html=1;align=center;shadow=0;dashed=0;fontColor=#4277BB;labelBackgroundColor=#ffffff;fontSize=16;spacingTop=3;image;image=img/lib/ibm/vpc/RegionTag.svg;fillColor=none;fontStyle=1" parent="CxIQSj_tXQ3jHg43zF80-12" vertex="1">
          <mxGeometry x="-7.001334398098223" y="41.46206896551715" width="25.406498964613238" height="25.406498964613238" as="geometry" />
        </mxCell>
        <mxCell id="CxIQSj_tXQ3jHg43zF80-14" value="" style="outlineConnect=0;fontColor=#232F3E;gradientColor=none;fillColor=#BC1356;strokeColor=none;dashed=0;verticalLabelPosition=bottom;verticalAlign=top;align=center;html=1;fontSize=12;fontStyle=1;aspect=fixed;pointerEvents=1;shape=mxgraph.aws4.organizations_organizational_unit;" parent="CxIQSj_tXQ3jHg43zF80-12" vertex="1">
          <mxGeometry x="-29" y="-39.15862068965517" width="34.92" height="30" as="geometry" />
        </mxCell>
        <mxCell id="NB6zla1_pPjd2Ij3sc6e-40" value="&lt;font&gt;AWS Backup Policy - Target Regions&lt;br&gt;&lt;/font&gt;" style="text;html=1;strokeColor=none;fillColor=none;align=center;verticalAlign=middle;whiteSpace=wrap;rounded=0;dashed=1;fontSize=16;opacity=20;fontColor=#000000;fontStyle=1" parent="CxIQSj_tXQ3jHg43zF80-12" vertex="1">
          <mxGeometry x="64.47" y="36.17565517241389" width="412.8" height="38.00689655172414" as="geometry" />
        </mxCell>
        <mxCell id="v9B4CywxQethZYfmsZQ_-1" value="AWS Config Record Bucket" style="outlineConnect=0;fontColor=#232F3E;gradientColor=none;fillColor=#277116;strokeColor=none;dashed=0;verticalLabelPosition=bottom;verticalAlign=top;align=center;html=1;fontSize=12;fontStyle=0;aspect=fixed;pointerEvents=1;shape=mxgraph.aws4.bucket_with_objects;" parent="CxIQSj_tXQ3jHg43zF80-12" vertex="1">
          <mxGeometry x="459" y="508.00068965517244" width="75" height="78" as="geometry" />
        </mxCell>
        <mxCell id="v9B4CywxQethZYfmsZQ_-70" style="edgeStyle=orthogonalEdgeStyle;rounded=0;orthogonalLoop=1;jettySize=auto;html=1;startArrow=none;startFill=0;endArrow=classic;endFill=1;" parent="CxIQSj_tXQ3jHg43zF80-12" source="v9B4CywxQethZYfmsZQ_-2" target="v9B4CywxQethZYfmsZQ_-1" edge="1">
          <mxGeometry relative="1" as="geometry" />
        </mxCell>
        <mxCell id="v9B4CywxQethZYfmsZQ_-2" value="AWS Config Recorder&lt;br&gt;AWS Backup Events" style="points=[[0,0,0],[0.25,0,0],[0.5,0,0],[0.75,0,0],[1,0,0],[0,1,0],[0.25,1,0],[0.5,1,0],[0.75,1,0],[1,1,0],[0,0.25,0],[0,0.5,0],[0,0.75,0],[1,0.25,0],[1,0.5,0],[1,0.75,0]];points=[[0,0,0],[0.25,0,0],[0.5,0,0],[0.75,0,0],[1,0,0],[0,1,0],[0.25,1,0],[0.5,1,0],[0.75,1,0],[1,1,0],[0,0.25,0],[0,0.5,0],[0,0.75,0],[1,0.25,0],[1,0.5,0],[1,0.75,0]];outlineConnect=0;fontColor=#232F3E;gradientColor=#F34482;gradientDirection=north;fillColor=#BC1356;strokeColor=#ffffff;dashed=0;verticalLabelPosition=bottom;verticalAlign=top;align=center;html=1;fontSize=12;fontStyle=0;aspect=fixed;shape=mxgraph.aws4.resourceIcon;resIcon=mxgraph.aws4.config;" parent="CxIQSj_tXQ3jHg43zF80-12" vertex="1">
          <mxGeometry x="459" y="365.99551724137933" width="78" height="78" as="geometry" />
        </mxCell>
        <mxCell id="v9B4CywxQethZYfmsZQ_-62" value="AWS Backup &lt;br&gt;Framework Controls" style="html=1;verticalLabelPosition=bottom;align=center;labelBackgroundColor=none;verticalAlign=top;strokeWidth=2;strokeColor=#0080F0;shadow=0;dashed=0;shape=mxgraph.ios7.icons.settings;fillColor=none;" parent="CxIQSj_tXQ3jHg43zF80-12" vertex="1">
          <mxGeometry x="329" y="372" width="60" height="65" as="geometry" />
        </mxCell>
        <mxCell id="xXyasQzCZubJCmbhg4r--2" value="" style="endArrow=classic;html=1;rounded=0;" parent="CxIQSj_tXQ3jHg43zF80-12" source="v9B4CywxQethZYfmsZQ_-2" target="v9B4CywxQethZYfmsZQ_-62" edge="1">
          <mxGeometry width="50" height="50" relative="1" as="geometry">
            <mxPoint x="419" y="168" as="sourcePoint" />
            <mxPoint x="389" y="407" as="targetPoint" />
          </mxGeometry>
        </mxCell>
        <mxCell id="kiC8-eNV-VLsFGezIAMi-6" value="EC2 Demo Instances&lt;br&gt;Tag - backup: daily" style="outlineConnect=0;fontColor=#232F3E;gradientColor=none;fillColor=#D86613;strokeColor=none;dashed=0;verticalLabelPosition=bottom;verticalAlign=top;align=center;html=1;fontSize=12;fontStyle=0;aspect=fixed;pointerEvents=1;shape=mxgraph.aws4.instances;" parent="CxIQSj_tXQ3jHg43zF80-12" vertex="1">
          <mxGeometry x="99" y="378" width="48" height="48" as="geometry" />
        </mxCell>
        <mxCell id="HDAWwgWsNDl2rdhHUpmM-1" value="&lt;div style=&quot;font-size: 12px;&quot;&gt;&lt;font style=&quot;font-size: 12px;&quot;&gt;AWSConfigSolutionRole&lt;/font&gt;&lt;/div&gt;&lt;div style=&quot;font-size: 12px;&quot;&gt;&lt;font style=&quot;font-size: 12px;&quot;&gt;&amp;nbsp; (AWS Config Service Role)&lt;/font&gt;&lt;/div&gt;" style="outlineConnect=0;gradientColor=none;fillColor=#C7131F;strokeColor=none;dashed=0;verticalLabelPosition=bottom;verticalAlign=top;align=center;html=1;fontSize=12;fontStyle=1;aspect=fixed;pointerEvents=1;shape=mxgraph.aws4.role;dashPattern=1 1;labelBackgroundColor=none;fontFamily=Helvetica;" parent="CxIQSj_tXQ3jHg43zF80-12" vertex="1">
          <mxGeometry x="359.0043076923077" y="238.00075862068968" width="78.44" height="44.24" as="geometry" />
        </mxCell>
        <mxCell id="6alUi45Nj-87CM71QCCf-48" style="edgeStyle=orthogonalEdgeStyle;rounded=0;orthogonalLoop=1;jettySize=auto;html=1;startArrow=classic;startFill=1;endArrow=classic;endFill=1;fontSize=16;dashed=1;fillColor=#e1d5e7;strokeColor=#9673a6;fontStyle=1;" parent="1" source="6alUi45Nj-87CM71QCCf-65" target="6alUi45Nj-87CM71QCCf-66" edge="1">
          <mxGeometry relative="1" as="geometry">
            <Array as="points">
              <mxPoint x="177" y="1600" />
              <mxPoint x="-1270" y="1600" />
            </Array>
            <mxPoint x="170" y="629" as="sourcePoint" />
            <mxPoint x="-1270" y="811" as="targetPoint" />
          </mxGeometry>
        </mxCell>
        <mxCell id="xXyasQzCZubJCmbhg4r--6" value="" style="endArrow=classic;html=1;rounded=0;dashed=1;strokeColor=#33FFFF;" parent="1" target="v9B4CywxQethZYfmsZQ_-10" edge="1">
          <mxGeometry width="50" height="50" relative="1" as="geometry">
            <mxPoint x="260" y="870" as="sourcePoint" />
            <mxPoint x="-390" y="760" as="targetPoint" />
            <Array as="points">
              <mxPoint x="260" y="1270" />
              <mxPoint x="-760" y="1270" />
              <mxPoint x="-760" y="645" />
            </Array>
          </mxGeometry>
        </mxCell>
        <mxCell id="xXyasQzCZubJCmbhg4r--8" value="" style="endArrow=none;html=1;rounded=0;strokeColor=#33FFFF;dashed=1;" parent="1" edge="1">
          <mxGeometry width="50" height="50" relative="1" as="geometry">
            <mxPoint x="260" y="1270" as="sourcePoint" />
            <mxPoint x="950" y="1270" as="targetPoint" />
            <Array as="points">
              <mxPoint x="950" y="1270" />
              <mxPoint x="950" y="860" />
              <mxPoint x="950" y="1080" />
            </Array>
          </mxGeometry>
        </mxCell>
        <mxCell id="A0viHCK5SYCwywmSKyw1-1" value="&lt;font&gt;Cross-Region and Cross-Account Reporting&lt;/font&gt;" style="text;html=1;strokeColor=none;fillColor=none;align=center;verticalAlign=middle;whiteSpace=wrap;rounded=0;dashed=1;fontSize=16;opacity=20;fontColor=#000000;fontStyle=1" parent="1" vertex="1">
          <mxGeometry x="321.00000000000006" y="1280" width="207.2" height="33" as="geometry" />
        </mxCell>
        <mxCell id="A0viHCK5SYCwywmSKyw1-2" style="edgeStyle=none;rounded=0;orthogonalLoop=1;jettySize=auto;html=1;fontSize=16;fontColor=#cccc00;endArrow=classic;endFill=1;dashed=1;strokeColor=#33FFFF;fillColor=#d5e8d4;fontStyle=1" parent="1" edge="1">
          <mxGeometry relative="1" as="geometry">
            <mxPoint x="900.0030769230771" y="199.5641573021378" as="sourcePoint" />
            <mxPoint x="976.5695384615383" y="198.99617651419544" as="targetPoint" />
          </mxGeometry>
        </mxCell>
        <mxCell id="A0viHCK5SYCwywmSKyw1-3" value="&lt;font style=&quot;font-size: 12px&quot;&gt;Cross-Region &amp;amp; Cross-account reporting&lt;br style=&quot;font-size: 12px&quot;&gt;&lt;/font&gt;" style="text;html=1;strokeColor=none;fillColor=none;align=left;verticalAlign=middle;whiteSpace=wrap;rounded=0;dashed=1;fontSize=12;opacity=20;fontColor=#000000;fontStyle=1" parent="1" vertex="1">
          <mxGeometry x="989" y="183" width="340" height="33" as="geometry" />
        </mxCell>
        <mxCell id="HDAWwgWsNDl2rdhHUpmM-2" value="&lt;div style=&quot;font-size: 12px;&quot;&gt;&lt;font style=&quot;font-size: 12px;&quot;&gt;AWSConfigSolutionRole&lt;/font&gt;&lt;/div&gt;&lt;div style=&quot;font-size: 12px;&quot;&gt;&lt;font style=&quot;font-size: 12px;&quot;&gt;&amp;nbsp; (AWS Config Service Role)&lt;/font&gt;&lt;/div&gt;" style="outlineConnect=0;gradientColor=none;fillColor=#C7131F;strokeColor=none;dashed=0;verticalLabelPosition=bottom;verticalAlign=top;align=center;html=1;fontSize=12;fontStyle=1;aspect=fixed;pointerEvents=1;shape=mxgraph.aws4.role;dashPattern=1 1;labelBackgroundColor=none;fontFamily=Helvetica;" parent="1" vertex="1">
          <mxGeometry x="959.0043076923077" y="670.0007586206897" width="78.44" height="44.24" as="geometry" />
        </mxCell>
        <mxCell id="HDAWwgWsNDl2rdhHUpmM-3" style="edgeStyle=orthogonalEdgeStyle;rounded=0;orthogonalLoop=1;jettySize=auto;html=1;dashed=1;fillColor=#f8cecc;strokeColor=#b85450;fontStyle=1;fontSize=12;" parent="1" source="6hWTu8b9TR3-1_u6v6Gw-1" target="HDAWwgWsNDl2rdhHUpmM-2" edge="1">
          <mxGeometry relative="1" as="geometry">
            <mxPoint x="708" y="680" as="targetPoint" />
            <mxPoint x="-430.97564051774816" y="657.0588235294117" as="sourcePoint" />
            <Array as="points">
              <mxPoint x="998" y="650" />
            </Array>
          </mxGeometry>
        </mxCell>
        <mxCell id="HDAWwgWsNDl2rdhHUpmM-4" style="edgeStyle=orthogonalEdgeStyle;rounded=0;orthogonalLoop=1;jettySize=auto;html=1;dashed=1;fillColor=#f8cecc;strokeColor=#b85450;fontStyle=1;fontSize=12;" parent="1" source="6hWTu8b9TR3-1_u6v6Gw-1" target="HDAWwgWsNDl2rdhHUpmM-1" edge="1">
          <mxGeometry relative="1" as="geometry">
            <mxPoint x="708" y="680" as="targetPoint" />
            <mxPoint x="-414" y="660" as="sourcePoint" />
            <Array as="points">
              <mxPoint x="299" y="650" />
            </Array>
          </mxGeometry>
        </mxCell>
        <mxCell id="CxIQSj_tXQ3jHg43zF80-3" value="Accounts" parent="0" />
        <mxCell id="6alUi45Nj-87CM71QCCf-5" value="&lt;font style=&quot;font-size: 16px&quot;&gt;&lt;span&gt;AWS Organizations Management Account&lt;/span&gt;&lt;/font&gt;" style="points=[[0,0],[0.25,0],[0.5,0],[0.75,0],[1,0],[1,0.25],[1,0.5],[1,0.75],[1,1],[0.75,1],[0.5,1],[0.25,1],[0,1],[0,0.75],[0,0.5],[0,0.25]];outlineConnect=0;gradientColor=none;html=1;whiteSpace=wrap;fontSize=16;fontStyle=1;shape=mxgraph.aws4.group;grIcon=mxgraph.aws4.group_aws_cloud;strokeColor=#232F3E;fillColor=none;verticalAlign=top;align=left;spacingLeft=30;fontColor=#232F3E;dashed=0;" parent="CxIQSj_tXQ3jHg43zF80-3" vertex="1">
          <mxGeometry x="-724" y="180" width="554" height="1310" as="geometry" />
        </mxCell>
        <mxCell id="CxIQSj_tXQ3jHg43zF80-4" value="Regions" parent="0" />
        <mxCell id="6alUi45Nj-87CM71QCCf-23" value="" style="whiteSpace=wrap;html=1;fillColor=none;fontSize=12;dashed=1;strokeColor=#00cc00;fontStyle=1" parent="CxIQSj_tXQ3jHg43zF80-4" vertex="1">
          <mxGeometry x="-710" y="215" width="530" height="1235" as="geometry" />
        </mxCell>
        <mxCell id="6alUi45Nj-87CM71QCCf-8" value="&lt;font color=&quot;#212121&quot; style=&quot;font-size: 12px;&quot;&gt;AWS Organizations Home Region&lt;br style=&quot;font-size: 12px;&quot;&gt;&lt;/font&gt;" style="text;html=1;strokeColor=none;fillColor=none;align=center;verticalAlign=middle;whiteSpace=wrap;rounded=0;dashed=1;fontSize=12;opacity=20;fontStyle=1" parent="CxIQSj_tXQ3jHg43zF80-4" vertex="1">
          <mxGeometry x="-658.71" y="217" width="245.71" height="33" as="geometry" />
        </mxCell>
        <mxCell id="6alUi45Nj-87CM71QCCf-11" value="" style="aspect=fixed;perimeter=ellipsePerimeter;html=1;align=center;shadow=0;dashed=0;fontColor=#4277BB;labelBackgroundColor=#ffffff;fontSize=12;spacingTop=3;image;image=img/lib/ibm/vpc/RegionTag.svg;fillColor=none;fontStyle=1" parent="CxIQSj_tXQ3jHg43zF80-4" vertex="1">
          <mxGeometry x="-686.0557142857143" y="220.05" width="25.05564731224477" height="25.05564731224477" as="geometry" />
        </mxCell>
        <mxCell id="aefqfl1ly7InYCL16Vul-11" value="" style="aspect=fixed;perimeter=ellipsePerimeter;html=1;align=center;shadow=0;dashed=0;fontColor=#4277BB;labelBackgroundColor=#ffffff;fontSize=12;spacingTop=3;image;image=img/lib/ibm/vpc/RegionTag.svg;fillColor=none;fontStyle=1" parent="CxIQSj_tXQ3jHg43zF80-4" vertex="1">
          <mxGeometry x="-1540" y="220.00280442804421" width="24.46898977772714" height="24.46898977772714" as="geometry" />
        </mxCell>
        <mxCell id="vsZvOWJckSr3CKBYO4Zu-1" value="&lt;div style=&quot;font-size: 12px;&quot;&gt;&lt;font style=&quot;font-size: 12px;&quot;&gt;organizations-aws-backup-member-accounts&lt;/font&gt;&lt;/div&gt;&lt;font style=&quot;font-size: 12px;&quot;&gt;AWS CloudFormation Service Managed StackSet&lt;br style=&quot;font-size: 12px;&quot;&gt;(Create Vault, KMS)&lt;/font&gt;" style="outlineConnect=0;gradientColor=none;fillColor=#BC1356;strokeColor=none;dashed=0;verticalLabelPosition=bottom;verticalAlign=top;align=center;html=1;fontSize=12;fontStyle=1;aspect=fixed;pointerEvents=1;shape=mxgraph.aws4.stack;labelBackgroundColor=none;fontFamily=Helvetica;" parent="CxIQSj_tXQ3jHg43zF80-4" vertex="1">
          <mxGeometry x="-501" y="440" width="76.26" height="74.31" as="geometry" />
        </mxCell>
        <mxCell id="vsZvOWJckSr3CKBYO4Zu-3" style="edgeStyle=orthogonalEdgeStyle;rounded=0;orthogonalLoop=1;jettySize=auto;html=1;dashed=1;fillColor=#f8cecc;strokeColor=#b85450;fontStyle=1;fontSize=12;" parent="CxIQSj_tXQ3jHg43zF80-4" source="vsZvOWJckSr3CKBYO4Zu-16" target="vsZvOWJckSr3CKBYO4Zu-5" edge="1">
          <mxGeometry relative="1" as="geometry">
            <Array as="points">
              <mxPoint x="-920" y="960" />
              <mxPoint x="-920" y="960" />
            </Array>
            <mxPoint x="265" y="663.4100000000001" as="targetPoint" />
            <mxPoint x="-519.7440334706157" y="840" as="sourcePoint" />
          </mxGeometry>
        </mxCell>
        <mxCell id="vsZvOWJckSr3CKBYO4Zu-16" value="&lt;div style=&quot;font-size: 12px;&quot;&gt;&lt;div style=&quot;font-size: 12px;&quot;&gt;&lt;span style=&quot;font-size: 12px;&quot;&gt;organizations-aws-backup-restore-test-plan&lt;/span&gt;&lt;/div&gt;&lt;/div&gt;" style="outlineConnect=0;gradientColor=none;fillColor=#BC1356;strokeColor=none;dashed=0;verticalLabelPosition=bottom;verticalAlign=top;align=center;html=1;fontSize=12;fontStyle=1;aspect=fixed;pointerEvents=1;shape=mxgraph.aws4.stack;labelBackgroundColor=none;fontFamily=Helvetica;" parent="CxIQSj_tXQ3jHg43zF80-4" vertex="1">
          <mxGeometry x="-506" y="920" width="80.88" height="78.8" as="geometry" />
        </mxCell>
        <mxCell id="vsZvOWJckSr3CKBYO4Zu-17" style="edgeStyle=orthogonalEdgeStyle;rounded=0;orthogonalLoop=1;jettySize=auto;html=1;dashed=1;fontStyle=1;fontSize=12;" parent="CxIQSj_tXQ3jHg43zF80-4" target="vsZvOWJckSr3CKBYO4Zu-16" edge="1">
          <mxGeometry relative="1" as="geometry">
            <Array as="points">
              <mxPoint x="-1026" y="470" />
              <mxPoint x="-750" y="470" />
              <mxPoint x="-750" y="979" />
            </Array>
            <mxPoint x="-1025.7799999999997" y="480" as="sourcePoint" />
            <mxPoint x="-479.74403347061525" y="1130" as="targetPoint" />
          </mxGeometry>
        </mxCell>
        <mxCell id="vsZvOWJckSr3CKBYO4Zu-18" value="&lt;div style=&quot;font-size: 12px;&quot;&gt;&lt;div style=&quot;font-size: 12px;&quot;&gt;&lt;span style=&quot;font-size: 12px;&quot;&gt;organizations-aws-backup-restore-test-validation&lt;/span&gt;&lt;/div&gt;&lt;/div&gt;" style="outlineConnect=0;gradientColor=none;fillColor=#BC1356;strokeColor=none;dashed=0;verticalLabelPosition=bottom;verticalAlign=top;align=center;html=1;fontSize=12;fontStyle=1;aspect=fixed;pointerEvents=1;shape=mxgraph.aws4.stack;labelBackgroundColor=none;fontFamily=Helvetica;" parent="CxIQSj_tXQ3jHg43zF80-4" vertex="1">
          <mxGeometry x="-506" y="1100" width="80.88" height="78.8" as="geometry" />
        </mxCell>
        <mxCell id="vsZvOWJckSr3CKBYO4Zu-19" style="edgeStyle=orthogonalEdgeStyle;rounded=0;orthogonalLoop=1;jettySize=auto;html=1;dashed=1;fontStyle=1;fontSize=12;" parent="CxIQSj_tXQ3jHg43zF80-4" source="OqShdTPiF2n6pkkPBl1H-1" target="vsZvOWJckSr3CKBYO4Zu-18" edge="1">
          <mxGeometry relative="1" as="geometry">
            <Array as="points">
              <mxPoint x="-750" y="470" />
              <mxPoint x="-750" y="1139" />
            </Array>
            <mxPoint x="-1025.7799999999997" y="480" as="sourcePoint" />
            <mxPoint x="-509.74403347061525" y="1309.0588235294117" as="targetPoint" />
          </mxGeometry>
        </mxCell>
        <mxCell id="vsZvOWJckSr3CKBYO4Zu-20" style="edgeStyle=orthogonalEdgeStyle;rounded=0;orthogonalLoop=1;jettySize=auto;html=1;dashed=1;fillColor=#f8cecc;strokeColor=#b85450;fontStyle=1;fontSize=12;" parent="CxIQSj_tXQ3jHg43zF80-4" source="6hWTu8b9TR3-1_u6v6Gw-1" target="6alUi45Nj-87CM71QCCf-51" edge="1">
          <mxGeometry relative="1" as="geometry">
            <mxPoint x="-29.510681625132747" y="678" as="targetPoint" />
            <mxPoint x="-433.9756405177486" y="647.1764705882354" as="sourcePoint" />
            <Array as="points">
              <mxPoint x="-1" y="650" />
            </Array>
          </mxGeometry>
        </mxCell>
        <mxCell id="vsZvOWJckSr3CKBYO4Zu-21" style="edgeStyle=orthogonalEdgeStyle;rounded=0;orthogonalLoop=1;jettySize=auto;html=1;dashed=1;fillColor=#f8cecc;strokeColor=#b85450;fontStyle=1;fontSize=12;" parent="CxIQSj_tXQ3jHg43zF80-4" source="vsZvOWJckSr3CKBYO4Zu-16" target="vsZvOWJckSr3CKBYO4Zu-4" edge="1">
          <mxGeometry relative="1" as="geometry">
            <Array as="points">
              <mxPoint x="-1170" y="990" />
              <mxPoint x="-1170" y="1050" />
            </Array>
            <mxPoint x="-1315.426989767233" y="960" as="targetPoint" />
            <mxPoint x="-509.74403347061525" y="850" as="sourcePoint" />
          </mxGeometry>
        </mxCell>
        <mxCell id="vsZvOWJckSr3CKBYO4Zu-23" style="edgeStyle=orthogonalEdgeStyle;rounded=0;orthogonalLoop=1;jettySize=auto;html=1;dashed=1;fillColor=#f8cecc;strokeColor=#b85450;fontStyle=1;fontSize=12;" parent="CxIQSj_tXQ3jHg43zF80-4" source="vsZvOWJckSr3CKBYO4Zu-18" target="vsZvOWJckSr3CKBYO4Zu-22" edge="1">
          <mxGeometry relative="1" as="geometry">
            <Array as="points">
              <mxPoint x="-479" y="1060" />
            </Array>
            <mxPoint x="-1333.4999999999998" y="1060" as="targetPoint" />
            <mxPoint x="-509.74403347061525" y="1000" as="sourcePoint" />
          </mxGeometry>
        </mxCell>
        <mxCell id="vsZvOWJckSr3CKBYO4Zu-25" style="edgeStyle=orthogonalEdgeStyle;rounded=0;orthogonalLoop=1;jettySize=auto;html=1;dashed=1;fillColor=#f8cecc;strokeColor=#b85450;fontStyle=1;fontSize=12;" parent="CxIQSj_tXQ3jHg43zF80-4" source="vsZvOWJckSr3CKBYO4Zu-18" target="vsZvOWJckSr3CKBYO4Zu-24" edge="1">
          <mxGeometry relative="1" as="geometry">
            <Array as="points">
              <mxPoint x="-630" y="1145" />
              <mxPoint x="-630" y="1145" />
            </Array>
            <mxPoint x="-920" y="1200" as="targetPoint" />
            <mxPoint x="-474.47058823529414" y="1250" as="sourcePoint" />
          </mxGeometry>
        </mxCell>
        <mxCell id="vsZvOWJckSr3CKBYO4Zu-39" style="edgeStyle=orthogonalEdgeStyle;rounded=0;orthogonalLoop=1;jettySize=auto;html=1;dashed=1;fontSize=12;" parent="CxIQSj_tXQ3jHg43zF80-4" source="vsZvOWJckSr3CKBYO4Zu-38" target="OqShdTPiF2n6pkkPBl1H-1" edge="1">
          <mxGeometry relative="1" as="geometry">
            <Array as="points">
              <mxPoint x="-1460" y="450" />
              <mxPoint x="-1460" y="450" />
            </Array>
          </mxGeometry>
        </mxCell>
        <mxCell id="vsZvOWJckSr3CKBYO4Zu-40" value="Solution Changes" style="edgeLabel;html=1;align=center;verticalAlign=middle;resizable=0;points=[];fontSize=12;" parent="vsZvOWJckSr3CKBYO4Zu-39" vertex="1" connectable="0">
          <mxGeometry x="0.0808" y="-2" relative="1" as="geometry">
            <mxPoint as="offset" />
          </mxGeometry>
        </mxCell>
        <mxCell id="vsZvOWJckSr3CKBYO4Zu-38" value="AWS Backup Solution Repository" style="dashed=0;outlineConnect=0;html=1;align=center;labelPosition=center;verticalLabelPosition=bottom;verticalAlign=top;shape=mxgraph.webicons.github;gradientColor=#DFDEDE;fontSize=12;" parent="CxIQSj_tXQ3jHg43zF80-4" vertex="1">
          <mxGeometry x="-1730" y="390" width="102.4" height="102.4" as="geometry" />
        </mxCell>
        <mxCell id="vsZvOWJckSr3CKBYO4Zu-64" style="edgeStyle=orthogonalEdgeStyle;rounded=0;orthogonalLoop=1;jettySize=auto;html=1;dashed=1;startArrow=classic;startFill=1;endArrow=none;endFill=0;fontSize=12;" parent="CxIQSj_tXQ3jHg43zF80-4" source="6hWTu8b9TR3-1_u6v6Gw-1" edge="1">
          <mxGeometry relative="1" as="geometry">
            <mxPoint x="-481.86999999999944" y="700" as="targetPoint" />
          </mxGeometry>
        </mxCell>
        <mxCell id="vsZvOWJckSr3CKBYO4Zu-69" style="edgeStyle=orthogonalEdgeStyle;rounded=0;orthogonalLoop=1;jettySize=auto;html=1;dashed=1;fillColor=#f8cecc;strokeColor=#b85450;fontStyle=1;fontSize=12;" parent="CxIQSj_tXQ3jHg43zF80-4" source="vsZvOWJckSr3CKBYO4Zu-1" target="6alUi45Nj-87CM71QCCf-38" edge="1">
          <mxGeometry relative="1" as="geometry">
            <Array as="points">
              <mxPoint x="-190" y="480" />
              <mxPoint x="-190" y="380" />
              <mxPoint x="351" y="380" />
            </Array>
            <mxPoint x="181.8699999999999" y="506.4100000000001" as="targetPoint" />
            <mxPoint x="-437.9756405177486" y="490.0588235294117" as="sourcePoint" />
          </mxGeometry>
        </mxCell>
        <mxCell id="NB6zla1_pPjd2Ij3sc6e-60" value="&lt;font style=&quot;font-size: 13px;&quot;&gt;Legend:&lt;br style=&quot;font-size: 13px;&quot;&gt;&lt;br style=&quot;font-size: 13px;&quot;&gt;&lt;/font&gt;" style="text;html=1;strokeColor=none;fillColor=none;align=left;verticalAlign=middle;whiteSpace=wrap;rounded=0;dashed=1;fontSize=13;opacity=20;fontColor=#000000;fontStyle=1" parent="CxIQSj_tXQ3jHg43zF80-4" vertex="1">
          <mxGeometry x="900" y="90" width="200" height="30" as="geometry" />
        </mxCell>
        <mxCell id="NB6zla1_pPjd2Ij3sc6e-61" style="edgeStyle=none;rounded=0;orthogonalLoop=1;jettySize=auto;html=1;fontSize=16;fontColor=#000000;endArrow=classic;endFill=1;dashed=1;strokeColor=#82b366;fillColor=#d5e8d4;fontStyle=1" parent="CxIQSj_tXQ3jHg43zF80-4" edge="1">
          <mxGeometry relative="1" as="geometry">
            <mxPoint x="900.0030769230771" y="124.15415730213786" as="sourcePoint" />
            <mxPoint x="976.5695384615383" y="123.5861765141955" as="targetPoint" />
          </mxGeometry>
        </mxCell>
        <mxCell id="NB6zla1_pPjd2Ij3sc6e-65" value="&lt;font style=&quot;font-size: 12px;&quot;&gt;Implement backup policies&lt;br style=&quot;font-size: 12px;&quot;&gt;&lt;/font&gt;" style="text;html=1;strokeColor=none;fillColor=none;align=left;verticalAlign=middle;whiteSpace=wrap;rounded=0;dashed=1;fontSize=12;opacity=20;fontColor=#000000;fontStyle=1" parent="CxIQSj_tXQ3jHg43zF80-4" vertex="1">
          <mxGeometry x="990" y="105.59" width="300" height="33" as="geometry" />
        </mxCell>
        <mxCell id="NB6zla1_pPjd2Ij3sc6e-66" style="edgeStyle=none;rounded=0;orthogonalLoop=1;jettySize=auto;html=1;fontSize=16;fontColor=#000000;endArrow=classic;endFill=1;dashed=1;strokeColor=#ea6b66;fillColor=#d5e8d4;fontStyle=1" parent="CxIQSj_tXQ3jHg43zF80-4" edge="1">
          <mxGeometry relative="1" as="geometry">
            <mxPoint x="902.0030769230771" y="141.1541573021378" as="sourcePoint" />
            <mxPoint x="978.5695384615383" y="140.58617651419544" as="targetPoint" />
          </mxGeometry>
        </mxCell>
        <mxCell id="NB6zla1_pPjd2Ij3sc6e-67" value="&lt;font style=&quot;font-size: 12px&quot;&gt;Create AWS backup account / regional resources&lt;br style=&quot;font-size: 12px&quot;&gt;&lt;/font&gt;" style="text;html=1;strokeColor=none;fillColor=none;align=left;verticalAlign=middle;whiteSpace=wrap;rounded=0;dashed=1;fontSize=12;opacity=20;fontColor=#000000;fontStyle=1" parent="CxIQSj_tXQ3jHg43zF80-4" vertex="1">
          <mxGeometry x="990" y="124.59" width="270" height="33" as="geometry" />
        </mxCell>
        <mxCell id="NB6zla1_pPjd2Ij3sc6e-68" style="edgeStyle=none;rounded=0;orthogonalLoop=1;jettySize=auto;html=1;fontSize=16;fontColor=#000000;endArrow=classic;endFill=1;dashed=1;strokeColor=#7ea6e0;fillColor=#d5e8d4;fontStyle=1" parent="CxIQSj_tXQ3jHg43zF80-4" edge="1">
          <mxGeometry relative="1" as="geometry">
            <mxPoint x="901.0030769230771" y="161.1541573021378" as="sourcePoint" />
            <mxPoint x="977.5695384615383" y="160.58617651419544" as="targetPoint" />
          </mxGeometry>
        </mxCell>
        <mxCell id="NB6zla1_pPjd2Ij3sc6e-69" value="&lt;font style=&quot;font-size: 12px&quot;&gt;Restore testing and validation on resources&lt;br style=&quot;font-size: 12px&quot;&gt;&lt;/font&gt;" style="text;html=1;strokeColor=none;fillColor=none;align=left;verticalAlign=middle;whiteSpace=wrap;rounded=0;dashed=1;fontSize=12;opacity=20;fontColor=#000000;fontStyle=1" parent="CxIQSj_tXQ3jHg43zF80-4" vertex="1">
          <mxGeometry x="990" y="143.59" width="270" height="33" as="geometry" />
        </mxCell>
        <mxCell id="NB6zla1_pPjd2Ij3sc6e-70" style="edgeStyle=none;rounded=0;orthogonalLoop=1;jettySize=auto;html=1;fontSize=16;fontColor=#cccc00;endArrow=classic;endFill=1;dashed=1;strokeColor=#b5739d;fillColor=#d5e8d4;fontStyle=1" parent="CxIQSj_tXQ3jHg43zF80-4" edge="1">
          <mxGeometry relative="1" as="geometry">
            <mxPoint x="901.0030769230771" y="180.1541573021378" as="sourcePoint" />
            <mxPoint x="977.5695384615383" y="179.58617651419544" as="targetPoint" />
          </mxGeometry>
        </mxCell>
        <mxCell id="NB6zla1_pPjd2Ij3sc6e-71" value="&lt;font style=&quot;font-size: 12px&quot;&gt;Cross-Region &amp;amp; Cross-account backup copy&lt;br style=&quot;font-size: 12px&quot;&gt;&lt;/font&gt;" style="text;html=1;strokeColor=none;fillColor=none;align=left;verticalAlign=middle;whiteSpace=wrap;rounded=0;dashed=1;fontSize=12;opacity=20;fontColor=#000000;fontStyle=1" parent="CxIQSj_tXQ3jHg43zF80-4" vertex="1">
          <mxGeometry x="990" y="163.59" width="340" height="33" as="geometry" />
        </mxCell>
        <mxCell id="vsZvOWJckSr3CKBYO4Zu-63" style="edgeStyle=orthogonalEdgeStyle;rounded=0;orthogonalLoop=1;jettySize=auto;html=1;dashed=1;fillColor=#f8cecc;strokeColor=#b85450;fontStyle=1;fontSize=12;" parent="CxIQSj_tXQ3jHg43zF80-4" source="6hWTu8b9TR3-1_u6v6Gw-1" target="v9B4CywxQethZYfmsZQ_-32" edge="1">
          <mxGeometry relative="1" as="geometry">
            <mxPoint x="698.2780769230776" y="610.8972340425532" as="targetPoint" />
            <mxPoint x="-440.97564051774816" y="647.0588235294117" as="sourcePoint" />
            <Array as="points">
              <mxPoint x="698" y="650" />
            </Array>
          </mxGeometry>
        </mxCell>
        <mxCell id="CxIQSj_tXQ3jHg43zF80-5" value="Regional Resources" parent="0" />
        <mxCell id="v9B4CywxQethZYfmsZQ_-30" value="" style="whiteSpace=wrap;html=1;fillColor=none;fontSize=16;dashed=1;dashPattern=1 1;strokeColor=#00cc00;fontStyle=1;container=0;" parent="CxIQSj_tXQ3jHg43zF80-5" vertex="1">
          <mxGeometry x="592" y="473.0020689655173" width="587" height="580.4689655172414" as="geometry" />
        </mxCell>
        <mxCell id="OqShdTPiF2n6pkkPBl1H-34" style="edgeStyle=orthogonalEdgeStyle;rounded=0;orthogonalLoop=1;jettySize=auto;html=1;dashed=1;fillColor=#d5e8d4;strokeColor=#82b366;fontStyle=1" parent="CxIQSj_tXQ3jHg43zF80-5" source="6alUi45Nj-87CM71QCCf-20" target="6alUi45Nj-87CM71QCCf-62" edge="1">
          <mxGeometry relative="1" as="geometry" />
        </mxCell>
        <mxCell id="6alUi45Nj-87CM71QCCf-20" value="&lt;font style=&quot;font-size: 16px&quot; color=&quot;#000000&quot;&gt;AWS Organizations&lt;br&gt;Backup Policies&lt;/font&gt;" style="outlineConnect=0;fontColor=#232F3E;gradientColor=#60A337;gradientDirection=north;fillColor=#277116;strokeColor=#ffffff;dashed=0;verticalLabelPosition=bottom;verticalAlign=top;align=center;html=1;fontSize=12;fontStyle=1;shape=mxgraph.aws4.resourceIcon;resIcon=mxgraph.aws4.backup;" parent="CxIQSj_tXQ3jHg43zF80-5" vertex="1">
          <mxGeometry x="-510" y="291.5" width="73.45" height="70" as="geometry" />
        </mxCell>
        <mxCell id="OqShdTPiF2n6pkkPBl1H-13" style="edgeStyle=orthogonalEdgeStyle;rounded=0;orthogonalLoop=1;jettySize=auto;html=1;dashed=1;fillColor=#f8cecc;strokeColor=#b85450;fontStyle=1;entryX=0.5;entryY=1;entryDx=0;entryDy=0;" parent="CxIQSj_tXQ3jHg43zF80-5" source="vsZvOWJckSr3CKBYO4Zu-1" target="NB6zla1_pPjd2Ij3sc6e-40" edge="1">
          <mxGeometry relative="1" as="geometry">
            <Array as="points">
              <mxPoint x="-191" y="480" />
              <mxPoint x="-191" y="380" />
              <mxPoint x="175" y="380" />
              <mxPoint x="175" y="500" />
              <mxPoint x="172" y="500" />
            </Array>
            <mxPoint x="175" y="430" as="targetPoint" />
            <mxPoint x="-410" y="450" as="sourcePoint" />
          </mxGeometry>
        </mxCell>
        <mxCell id="6hWTu8b9TR3-1_u6v6Gw-7" style="edgeStyle=orthogonalEdgeStyle;rounded=0;orthogonalLoop=1;jettySize=auto;html=1;fontStyle=1" parent="CxIQSj_tXQ3jHg43zF80-5" source="OqShdTPiF2n6pkkPBl1H-1" target="6hWTu8b9TR3-1_u6v6Gw-5" edge="1">
          <mxGeometry relative="1" as="geometry">
            <Array as="points">
              <mxPoint x="-1120" y="320" />
            </Array>
          </mxGeometry>
        </mxCell>
        <mxCell id="6hWTu8b9TR3-1_u6v6Gw-6" style="edgeStyle=orthogonalEdgeStyle;rounded=0;orthogonalLoop=1;jettySize=auto;html=1;fontStyle=1" parent="CxIQSj_tXQ3jHg43zF80-5" source="6hWTu8b9TR3-1_u6v6Gw-5" target="6alUi45Nj-87CM71QCCf-20" edge="1">
          <mxGeometry relative="1" as="geometry" />
        </mxCell>
        <mxCell id="6hWTu8b9TR3-1_u6v6Gw-5" value="&lt;div&gt;&lt;div&gt;&lt;font style=&quot;font-size: 16px&quot;&gt;aws-backup-org-policy&lt;/font&gt;&lt;/div&gt;&lt;/div&gt;&lt;span style=&quot;font-size: medium&quot;&gt;AWS CloudFormation&amp;nbsp;&lt;/span&gt;&lt;font size=&quot;3&quot;&gt;Stack&lt;br&gt;(Create Backup Policies)&lt;/font&gt;" style="outlineConnect=0;gradientColor=none;fillColor=#BC1356;strokeColor=none;dashed=0;verticalLabelPosition=bottom;verticalAlign=top;align=center;html=1;fontSize=12;fontStyle=1;aspect=fixed;pointerEvents=1;shape=mxgraph.aws4.stack;labelBackgroundColor=none;fontFamily=Helvetica;" parent="CxIQSj_tXQ3jHg43zF80-5" vertex="1">
          <mxGeometry x="-949.9999999999999" y="287.1" width="80.88" height="78.8" as="geometry" />
        </mxCell>
        <mxCell id="6hWTu8b9TR3-1_u6v6Gw-1" value="&lt;div&gt;&lt;font style=&quot;font-size: 12px&quot;&gt;organizations-aws-backup-member-accounts-role&lt;/font&gt;&lt;/div&gt;&lt;font style=&quot;font-size: 12px&quot;&gt;AWS CloudFormation Service Managed StackSet&lt;br&gt;(Role)&lt;/font&gt;" style="outlineConnect=0;gradientColor=none;fillColor=#BC1356;strokeColor=none;dashed=0;verticalLabelPosition=bottom;verticalAlign=top;align=center;html=1;fontSize=12;fontStyle=1;aspect=fixed;pointerEvents=1;shape=mxgraph.aws4.stack;labelBackgroundColor=none;fontFamily=Helvetica;" parent="CxIQSj_tXQ3jHg43zF80-5" vertex="1">
          <mxGeometry x="-500" y="600" width="76.26" height="74.31" as="geometry" />
        </mxCell>
        <mxCell id="6alUi45Nj-87CM71QCCf-65" value="AWSBackupSolutionVault&#xa;AWS Backup Vault" style="shape=image;verticalLabelPosition=bottom;labelBackgroundColor=none;verticalAlign=top;aspect=fixed;imageAspect=0;image=data:image/png,iVBORw0KGgoAAAANSUhEUgAAAEgAAABKCAYAAAAYJRJMAAAJ8klEQVR4Ae1beYglRxnvbLzPeF9RFNck5piZ1189AlFwQkLiupl5Xb2OFx54SzDx3hhw3O6qtyuKR5QkiKgJIoLgQfBYAmpMvIIaxCOCrn94JqhRA27U7G5c+dWb773v9euqrp55s7vjzMBQ1d/3+476urqOr+olydbfVgS2IrAVgRMkAnnZ2aeNuje36uhm/EfbdaH2el/HZg4OdwjEwBsgBm32MipAXtD/KUN2Cm8To0Be6Y3NiGp7FGhjx8HrfVTbo0BeExubEdX2KNCU4/CCovtEbTrPy8rOLm3T1/cMvU6X9KqsVDt6y3TOfDH/oCmbrFUX1fYoUK36eOKOYubUzNJl2qY35FbdJW3W1bVRh7VVP9ElXZWXdP58MX+/eGvxSGnbKxUF8koHGSflZaq1Ud/Qhu6TdtrX6c6sJLNYdJ4ctNiSKf3wikaBvNL1jMVCLWpDt0vdsq4N/SMv0+/lRn1Bl/QJ92/pem3VjdrQr3wB1Yb+rUv1gZ3vPudR9ZbbUaVPXskokJReSk6Wj7J+SX/2KdrQV6XOQZ2O5Fbtz616Y2bPfqaUqasv7j794b2ic6E29FFt6I9VfdrSn7VN8zrZNjSp1ysXBWLpItnGeG3VISajzEvaOTm+0N3Y5+R76UkS26q+lJyMYORW3cq2h6Wh63Zctv2BrfQJ8FCPVUcFebyal6rg/3HO5BO9ge7PSmWAMpO+VVv675Bn6L7M0DXT+hTYEwRKG/o920Gprfq+LmYez5g2pdTTRs6LXXrbqQ9mpRgPAMwKskxDmVn6XW7Uc7xK1sjYUWx/hLZ0vbSpjfrlaoIkdazRrYH4fHHmw4TSg7mld4jno7pUN0+71/gcx7Iht25sW0nT0C/mi7lTfPg6uvS9jt+aduEV9EhWik9q7LOy6Q1rGQ9aO4Pei4WmUYeHPpn060mRbIvVxXIoY2WCuAuuPOMxUinXtaWbjnVw2NGs7LxUvqhdfXov85pK9n9qAcJ3LpVyXRu6R1v6uzbqr7mlO5PAUqDJ6dXwdZn2h75YdQjblRg9LIMyBt+I8fUgaWhqxhq9EYAi2aZL+g77gZlNcL1Vxk/VZ23Up8YHx2oum45IjxaWu2fJ59XUF/ee+wS8nJCsLmZPy636Dze6V6YLITx4jJ1qgNgoNpAYdy5658xDMfVi9lra13kcduqMyWzntdg2aENvZ1rbEjqxbdGWftY0letSfXjUaPpxk60RNvCJ8SIRZZPCNvxemV4sexrGCSmfFXNPzw29LO+r3dqm70L9kj30NIm5uDjr0drST7khqIfGNxdMS/9ifL4815X6qvUhLjQGRYGqmiOe3YKuVDdL/Vhduz2WGC8kH3Vt1LcHKY65U7Sl20Z8OpKZ7ouaTOdWfZpldJl+PIRnHEovLgrklQ4zsPLeZbtfkTZi63KTis80M+nLw9YGXKzi2Ya26k9Jkpzkk2McSh9mfQeqJEkwVmlLn5XOoL5yHrc/K+mD+Mduv+6MDmucXpm+2tuAKgMzmlF/YXuLy7OdKoSfGYOSaRNlFGhCqh0hs/QWaUcb+nxd8gs08CQ2t+ln2llLEm3pc6xDm86bfPKMQenDrHsPwkCbW3WQnclK+pjXmRUGMIzXRv0Tg2+TjOTLPSKScZIn62zjuAbIzVAr5/6YqkOz0NB5lwOinw8b0Fe7h7yISlbMXsSySPn6RBhzfANk6FvsCE4ufM5W6cAO5SzdVOWHnncW6uyhrKHbfVjGoPRh1v0TkwMmTje8jlQYwIoG3FVhBx+RwWTZlZmsFs+YNQcI6dTM0Icyoz6SlZ0Laq15iMg8siNLxZkP8MAmyMCyHFIaE4AAAav5kSzd4YMyBqUPE9WDsj69h5Uhg+hVVsMY7PAH+7XV9iDoqFHtJWFFzv7mVv3BBxSYNQbIqDezMl2mV/sM1tH1cRiDsMUY+mvptjq/QGMMSh8mCoTMnVC236ushnFcZjHhL46hatxyJNGmtQVol517FisLDXp1jiBNgbUMyx+LdZBMoGVF+v46v0Bjn1D6MHEgt3yne1hhr999qldhDUPbzhUsi7LVStrQdTUqgySsfdher0xf7AMzBqUPk8SmO1ZORgcnCIYu9SqsMFZSEKNFHy8aBxdHo/ZiOJGtqPU+4lSWZ06Xqw4cWkYFyGupwsgNXcoKQ6tTKVYNju/MnfXKUhu6Qz5jPyd1++pZqV7BclmpfuTDgc44lCFcFG/l3N3d0sCbWdhHZ4QEq8FB8kwb9RKso2T+WDqJOs7WOB9UPW7GpxqyCZ67FMFXmhu2KNJ2k94ovjb0JVbamIwq6fxRjngQHGkkJqPoPheRXHM9N3Bi0iu65w39M+repk0uY1FK31Zdx60wVjq45JQ+O6RssUifj508ek4IF+Ih560tfVMbumWhoIeEsMCwf3nE4D7ETitAcG5s4WfVjSGHwWt6i03y4ONKHo69Q1ht1Cu5wUi8oYeG8OAxHmUTNpqPQ7mxZLyhy6OF1wmILYy7lLUy9mDfGGNqXQIEw3CAleNt9ZZnzo1xaD0wyHtjtmJ/8j4daPoU2Y+hzDR7EJRjp61t+kM2oI36G3IwbPhYlS7fLScOHDsX3fNi7bP/KL0ysQvFqoIFO/MMuVPHmXxWzM1Vcev17F6SCA4aqU3nNW3sxQWI1wyhKHqs4sQgt3S3MHQws5R54FMjIyGmy+4PhN2jvYLe19aAlPfKRoG80kmCLi0HSLe8L7vXNs06AZVBVs92XohLnNLvtjkqNiB1MG2ijAJNSI0TFu3M6drQr6Uu3CV051mBhd24lvCTXu7MZpa+Nm5DHY7dgtRpl7rq+I4WBfJKjxjueMfQl6U+V+/TARzDLBSnPXaEjqthEMYtDQTG9UwxHGhDv20zINdZlL7W8R0tCuSVnmTgiBgDttSLurvlYem7mBTQ6MUi3Y5VMmtAMNx+bw89Vxu6fHCAODa+uUyCW8GX6dVt7yOyHVlKHyV9rB4FGpNofsD4k9l0z+S96epdIneN9xDSE9UeIv0a1N1+7ovahrc3zd6NENLGiFqpRYEqMrGP6CHulzyGbmmT6pA+aaN+gx8eV6/GxPoQwkk7XlwUyCsdz8AY5C5clnQVrrhgDJGXFdzvMAaz061ZSZ/ENV8M/vEW2iOj2h4Fam87WgJjT5vzsmjFEcCotkeBIoxtREhU26NAG7H1ET5HtV2C5L5sU9TFusobz7EACYHNRvcHyK10J9cnmypAfTrgDRB+AZjZ7pV1n5S7cbrSqwa3T0e/LWN8DIax0yxj7MZg0PaYX0HWBtA1iD87zz3qGEyt8jUSY+zGYNbkxpgBDlSo9ARxTU54hE8I39ynFwpIhQe8pz1TJ58QvuHbRBI8asDu04FVf8urCN+J7NsqmrMlshWBrQhsRWAYgf8BKsghOCvf6TQAAAAASUVORK5CYII=;fontSize=12;fontStyle=1" parent="CxIQSj_tXQ3jHg43zF80-5" vertex="1">
          <mxGeometry x="119.39953846153844" y="499.65999999999997" width="81.2" height="83.45" as="geometry" />
        </mxCell>
        <mxCell id="6alUi45Nj-87CM71QCCf-38" value="&lt;div style=&quot;font-size: 12px;&quot;&gt;&lt;font style=&quot;font-size: 12px;&quot;&gt;AWSBackupSolutionKey&lt;/font&gt;&lt;/div&gt;&lt;font style=&quot;font-size: 12px;&quot;&gt;AWS KMS Key&lt;/font&gt;" style="outlineConnect=0;gradientColor=#F54749;gradientDirection=north;fillColor=#C7131F;strokeColor=#ffffff;dashed=0;verticalLabelPosition=bottom;verticalAlign=top;align=center;html=1;fontSize=12;fontStyle=1;aspect=fixed;shape=mxgraph.aws4.resourceIcon;resIcon=mxgraph.aws4.key_management_service;labelBackgroundColor=none;fontFamily=Helvetica;" parent="CxIQSj_tXQ3jHg43zF80-5" vertex="1">
          <mxGeometry x="312.276923076923" y="501.65999999999997" width="77.11" height="77.11" as="geometry" />
        </mxCell>
        <mxCell id="vsZvOWJckSr3CKBYO4Zu-66" style="edgeStyle=orthogonalEdgeStyle;rounded=0;orthogonalLoop=1;jettySize=auto;html=1;dashed=1;fillColor=#d5e8d4;strokeColor=#82b366;fontStyle=1;entryX=0.5;entryY=0;entryDx=0;entryDy=0;fontSize=12;" parent="CxIQSj_tXQ3jHg43zF80-5" target="v9B4CywxQethZYfmsZQ_-36" edge="1">
          <mxGeometry relative="1" as="geometry">
            <mxPoint x="-426.5500000000002" y="332.52941176470586" as="sourcePoint" />
            <mxPoint x="698.2780769230767" y="496" as="targetPoint" />
            <Array as="points">
              <mxPoint x="-427" y="326" />
              <mxPoint x="698" y="326" />
            </Array>
          </mxGeometry>
        </mxCell>
        <mxCell id="vsZvOWJckSr3CKBYO4Zu-62" style="edgeStyle=orthogonalEdgeStyle;rounded=0;orthogonalLoop=1;jettySize=auto;html=1;dashed=1;fillColor=#f8cecc;strokeColor=#b85450;fontStyle=1;entryX=0.5;entryY=0;entryDx=0;entryDy=0;fontSize=12;" parent="CxIQSj_tXQ3jHg43zF80-5" target="v9B4CywxQethZYfmsZQ_-49" edge="1">
          <mxGeometry relative="1" as="geometry">
            <Array as="points">
              <mxPoint x="-438" y="480" />
              <mxPoint x="-190" y="480" />
              <mxPoint x="-190" y="380" />
              <mxPoint x="856" y="380" />
              <mxPoint x="856" y="500" />
            </Array>
            <mxPoint x="855.9995384615386" y="526.451489361702" as="targetPoint" />
            <mxPoint x="-437.9756405177486" y="490.0588235294117" as="sourcePoint" />
          </mxGeometry>
        </mxCell>
        <mxCell id="vsZvOWJckSr3CKBYO4Zu-70" style="edgeStyle=orthogonalEdgeStyle;rounded=0;orthogonalLoop=1;jettySize=auto;html=1;dashed=1;fillColor=#f8cecc;strokeColor=#b85450;fontStyle=1;fontSize=12;" parent="CxIQSj_tXQ3jHg43zF80-5" source="vsZvOWJckSr3CKBYO4Zu-1" edge="1">
          <mxGeometry relative="1" as="geometry">
            <Array as="points">
              <mxPoint x="-190" y="480" />
              <mxPoint x="-190" y="380" />
              <mxPoint x="1050" y="380" />
            </Array>
            <mxPoint x="1050" y="500" as="targetPoint" />
            <mxPoint x="-427.9756405177486" y="500.0588235294117" as="sourcePoint" />
          </mxGeometry>
        </mxCell>
        <mxCell id="vsZvOWJckSr3CKBYO4Zu-71" style="edgeStyle=orthogonalEdgeStyle;rounded=0;orthogonalLoop=1;jettySize=auto;html=1;startArrow=classic;startFill=1;endArrow=classic;endFill=1;fontSize=12;dashed=1;fillColor=#e1d5e7;strokeColor=#9673a6;fontStyle=1;" parent="CxIQSj_tXQ3jHg43zF80-5" edge="1">
          <mxGeometry relative="1" as="geometry">
            <Array as="points">
              <mxPoint x="880" y="1600" />
              <mxPoint x="-1270" y="1600" />
              <mxPoint x="-1270" y="1458" />
            </Array>
            <mxPoint x="880" y="609.901489361702" as="sourcePoint" />
            <mxPoint x="-1260" y="1457.692357723577" as="targetPoint" />
          </mxGeometry>
        </mxCell>
        <mxCell id="v9B4CywxQethZYfmsZQ_-51" value="&lt;div&gt;&lt;font style=&quot;font-size: 12px&quot;&gt;organizations-aws-backup-member-accounts-config-framework&lt;/font&gt;&lt;/div&gt;&lt;font style=&quot;font-size: 12px&quot;&gt;AWS CloudFormation Service Managed StackSet&lt;br&gt;&lt;/font&gt;" style="outlineConnect=0;gradientColor=none;fillColor=#BC1356;strokeColor=none;dashed=0;verticalLabelPosition=bottom;verticalAlign=top;align=center;html=1;fontSize=12;fontStyle=1;aspect=fixed;pointerEvents=1;shape=mxgraph.aws4.stack;labelBackgroundColor=none;fontFamily=Helvetica;" parent="CxIQSj_tXQ3jHg43zF80-5" vertex="1">
          <mxGeometry x="-500" y="780" width="76.26" height="74.31" as="geometry" />
        </mxCell>
        <mxCell id="v9B4CywxQethZYfmsZQ_-53" style="edgeStyle=orthogonalEdgeStyle;rounded=0;orthogonalLoop=1;jettySize=auto;html=1;dashed=1;fillColor=#f8cecc;strokeColor=#b85450;fontStyle=1;fontSize=12;entryX=0.5;entryY=0;entryDx=0;entryDy=0;entryPerimeter=0;" parent="CxIQSj_tXQ3jHg43zF80-5" source="v9B4CywxQethZYfmsZQ_-51" target="v9B4CywxQethZYfmsZQ_-2" edge="1">
          <mxGeometry relative="1" as="geometry">
            <mxPoint x="331" y="673.635" as="targetPoint" />
            <mxPoint x="-399.99564051774814" y="806.1988235294117" as="sourcePoint" />
            <Array as="points">
              <mxPoint x="-462" y="770" />
              <mxPoint x="399" y="770" />
            </Array>
          </mxGeometry>
        </mxCell>
        <mxCell id="v9B4CywxQethZYfmsZQ_-54" style="edgeStyle=orthogonalEdgeStyle;rounded=0;orthogonalLoop=1;jettySize=auto;html=1;dashed=1;fillColor=#f8cecc;strokeColor=#b85450;fontStyle=1;fontSize=12;entryX=0.5;entryY=0;entryDx=0;entryDy=0;entryPerimeter=0;" parent="CxIQSj_tXQ3jHg43zF80-5" source="v9B4CywxQethZYfmsZQ_-51" target="v9B4CywxQethZYfmsZQ_-43" edge="1">
          <mxGeometry relative="1" as="geometry">
            <mxPoint x="1020" y="663.635" as="targetPoint" />
            <mxPoint x="-397.99564051774814" y="800.8" as="sourcePoint" />
            <Array as="points">
              <mxPoint x="-462" y="770" />
              <mxPoint x="1101" y="770" />
            </Array>
          </mxGeometry>
        </mxCell>
        <mxCell id="v9B4CywxQethZYfmsZQ_-29" value="&lt;span&gt;OU Member Account&lt;/span&gt;" style="points=[[0,0],[0.25,0],[0.5,0],[0.75,0],[1,0],[1,0.25],[1,0.5],[1,0.75],[1,1],[0.75,1],[0.5,1],[0.25,1],[0,1],[0,0.75],[0,0.5],[0,0.25]];outlineConnect=0;gradientColor=none;html=1;whiteSpace=wrap;fontSize=16;fontStyle=1;shape=mxgraph.aws4.group;grIcon=mxgraph.aws4.group_aws_cloud;strokeColor=#232F3E;fillColor=none;verticalAlign=top;align=left;spacingLeft=30;fontColor=#232F3E;dashed=0;container=0;" parent="CxIQSj_tXQ3jHg43zF80-5" vertex="1">
          <mxGeometry x="580" y="435.4551724137931" width="620" height="641.5103448275862" as="geometry" />
        </mxCell>
        <mxCell id="v9B4CywxQethZYfmsZQ_-64" style="edgeStyle=orthogonalEdgeStyle;rounded=0;orthogonalLoop=1;jettySize=auto;html=1;dashed=1;fillColor=#f8cecc;strokeColor=#b85450;fontStyle=1;fontSize=12;entryX=0.56;entryY=0.05;entryDx=0;entryDy=0;entryPerimeter=0;" parent="CxIQSj_tXQ3jHg43zF80-5" target="v9B4CywxQethZYfmsZQ_-63" edge="1">
          <mxGeometry relative="1" as="geometry">
            <mxPoint x="1108.000000000001" y="789.9955172413793" as="targetPoint" />
            <mxPoint x="-451.85714285714266" y="780" as="sourcePoint" />
            <Array as="points">
              <mxPoint x="-460" y="780" />
              <mxPoint x="-460" y="770" />
              <mxPoint x="954" y="770" />
            </Array>
          </mxGeometry>
        </mxCell>
        <mxCell id="v9B4CywxQethZYfmsZQ_-49" value="AWSBackupSolutionVault&#xa;AWS Backup Vault" style="shape=image;verticalLabelPosition=bottom;labelBackgroundColor=none;verticalAlign=top;aspect=fixed;imageAspect=0;image=data:image/png,iVBORw0KGgoAAAANSUhEUgAAAEgAAABKCAYAAAAYJRJMAAAJ8klEQVR4Ae1beYglRxnvbLzPeF9RFNck5piZ1189AlFwQkLiupl5Xb2OFx54SzDx3hhw3O6qtyuKR5QkiKgJIoLgQfBYAmpMvIIaxCOCrn94JqhRA27U7G5c+dWb773v9euqrp55s7vjzMBQ1d/3+476urqOr+olydbfVgS2IrAVgRMkAnnZ2aeNuje36uhm/EfbdaH2el/HZg4OdwjEwBsgBm32MipAXtD/KUN2Cm8To0Be6Y3NiGp7FGhjx8HrfVTbo0BeExubEdX2KNCU4/CCovtEbTrPy8rOLm3T1/cMvU6X9KqsVDt6y3TOfDH/oCmbrFUX1fYoUK36eOKOYubUzNJl2qY35FbdJW3W1bVRh7VVP9ElXZWXdP58MX+/eGvxSGnbKxUF8koHGSflZaq1Ud/Qhu6TdtrX6c6sJLNYdJ4ctNiSKf3wikaBvNL1jMVCLWpDt0vdsq4N/SMv0+/lRn1Bl/QJ92/pem3VjdrQr3wB1Yb+rUv1gZ3vPudR9ZbbUaVPXskokJReSk6Wj7J+SX/2KdrQV6XOQZ2O5Fbtz616Y2bPfqaUqasv7j794b2ic6E29FFt6I9VfdrSn7VN8zrZNjSp1ysXBWLpItnGeG3VISajzEvaOTm+0N3Y5+R76UkS26q+lJyMYORW3cq2h6Wh63Zctv2BrfQJ8FCPVUcFebyal6rg/3HO5BO9ge7PSmWAMpO+VVv675Bn6L7M0DXT+hTYEwRKG/o920Gprfq+LmYez5g2pdTTRs6LXXrbqQ9mpRgPAMwKskxDmVn6XW7Uc7xK1sjYUWx/hLZ0vbSpjfrlaoIkdazRrYH4fHHmw4TSg7mld4jno7pUN0+71/gcx7Iht25sW0nT0C/mi7lTfPg6uvS9jt+aduEV9EhWik9q7LOy6Q1rGQ9aO4Pei4WmUYeHPpn060mRbIvVxXIoY2WCuAuuPOMxUinXtaWbjnVw2NGs7LxUvqhdfXov85pK9n9qAcJ3LpVyXRu6R1v6uzbqr7mlO5PAUqDJ6dXwdZn2h75YdQjblRg9LIMyBt+I8fUgaWhqxhq9EYAi2aZL+g77gZlNcL1Vxk/VZ23Up8YHx2oum45IjxaWu2fJ59XUF/ee+wS8nJCsLmZPy636Dze6V6YLITx4jJ1qgNgoNpAYdy5658xDMfVi9lra13kcduqMyWzntdg2aENvZ1rbEjqxbdGWftY0letSfXjUaPpxk60RNvCJ8SIRZZPCNvxemV4sexrGCSmfFXNPzw29LO+r3dqm70L9kj30NIm5uDjr0drST7khqIfGNxdMS/9ifL4815X6qvUhLjQGRYGqmiOe3YKuVDdL/Vhduz2WGC8kH3Vt1LcHKY65U7Sl20Z8OpKZ7ouaTOdWfZpldJl+PIRnHEovLgrklQ4zsPLeZbtfkTZi63KTis80M+nLw9YGXKzi2Ya26k9Jkpzkk2McSh9mfQeqJEkwVmlLn5XOoL5yHrc/K+mD+Mduv+6MDmucXpm+2tuAKgMzmlF/YXuLy7OdKoSfGYOSaRNlFGhCqh0hs/QWaUcb+nxd8gs08CQ2t+ln2llLEm3pc6xDm86bfPKMQenDrHsPwkCbW3WQnclK+pjXmRUGMIzXRv0Tg2+TjOTLPSKScZIn62zjuAbIzVAr5/6YqkOz0NB5lwOinw8b0Fe7h7yISlbMXsSySPn6RBhzfANk6FvsCE4ufM5W6cAO5SzdVOWHnncW6uyhrKHbfVjGoPRh1v0TkwMmTje8jlQYwIoG3FVhBx+RwWTZlZmsFs+YNQcI6dTM0Icyoz6SlZ0Laq15iMg8siNLxZkP8MAmyMCyHFIaE4AAAav5kSzd4YMyBqUPE9WDsj69h5Uhg+hVVsMY7PAH+7XV9iDoqFHtJWFFzv7mVv3BBxSYNQbIqDezMl2mV/sM1tH1cRiDsMUY+mvptjq/QGMMSh8mCoTMnVC236ushnFcZjHhL46hatxyJNGmtQVol517FisLDXp1jiBNgbUMyx+LdZBMoGVF+v46v0Bjn1D6MHEgt3yne1hhr999qldhDUPbzhUsi7LVStrQdTUqgySsfdher0xf7AMzBqUPk8SmO1ZORgcnCIYu9SqsMFZSEKNFHy8aBxdHo/ZiOJGtqPU+4lSWZ06Xqw4cWkYFyGupwsgNXcoKQ6tTKVYNju/MnfXKUhu6Qz5jPyd1++pZqV7BclmpfuTDgc44lCFcFG/l3N3d0sCbWdhHZ4QEq8FB8kwb9RKso2T+WDqJOs7WOB9UPW7GpxqyCZ67FMFXmhu2KNJ2k94ovjb0JVbamIwq6fxRjngQHGkkJqPoPheRXHM9N3Bi0iu65w39M+repk0uY1FK31Zdx60wVjq45JQ+O6RssUifj508ek4IF+Ih560tfVMbumWhoIeEsMCwf3nE4D7ETitAcG5s4WfVjSGHwWt6i03y4ONKHo69Q1ht1Cu5wUi8oYeG8OAxHmUTNpqPQ7mxZLyhy6OF1wmILYy7lLUy9mDfGGNqXQIEw3CAleNt9ZZnzo1xaD0wyHtjtmJ/8j4daPoU2Y+hzDR7EJRjp61t+kM2oI36G3IwbPhYlS7fLScOHDsX3fNi7bP/KL0ysQvFqoIFO/MMuVPHmXxWzM1Vcev17F6SCA4aqU3nNW3sxQWI1wyhKHqs4sQgt3S3MHQws5R54FMjIyGmy+4PhN2jvYLe19aAlPfKRoG80kmCLi0HSLe8L7vXNs06AZVBVs92XohLnNLvtjkqNiB1MG2ijAJNSI0TFu3M6drQr6Uu3CV051mBhd24lvCTXu7MZpa+Nm5DHY7dgtRpl7rq+I4WBfJKjxjueMfQl6U+V+/TARzDLBSnPXaEjqthEMYtDQTG9UwxHGhDv20zINdZlL7W8R0tCuSVnmTgiBgDttSLurvlYem7mBTQ6MUi3Y5VMmtAMNx+bw89Vxu6fHCAODa+uUyCW8GX6dVt7yOyHVlKHyV9rB4FGpNofsD4k9l0z+S96epdIneN9xDSE9UeIv0a1N1+7ovahrc3zd6NENLGiFqpRYEqMrGP6CHulzyGbmmT6pA+aaN+gx8eV6/GxPoQwkk7XlwUyCsdz8AY5C5clnQVrrhgDJGXFdzvMAaz061ZSZ/ENV8M/vEW2iOj2h4Fam87WgJjT5vzsmjFEcCotkeBIoxtREhU26NAG7H1ET5HtV2C5L5sU9TFusobz7EACYHNRvcHyK10J9cnmypAfTrgDRB+AZjZ7pV1n5S7cbrSqwa3T0e/LWN8DIax0yxj7MZg0PaYX0HWBtA1iD87zz3qGEyt8jUSY+zGYNbkxpgBDlSo9ARxTU54hE8I39ynFwpIhQe8pz1TJ58QvuHbRBI8asDu04FVf8urCN+J7NsqmrMlshWBrQhsRWAYgf8BKsghOCvf6TQAAAAASUVORK5CYII=;fontSize=12;fontStyle=1;container=0;" parent="CxIQSj_tXQ3jHg43zF80-5" vertex="1">
          <mxGeometry x="818.3995384615384" y="499.82" width="81.2" height="83.45" as="geometry" />
        </mxCell>
        <mxCell id="v9B4CywxQethZYfmsZQ_-65" style="edgeStyle=orthogonalEdgeStyle;rounded=0;orthogonalLoop=1;jettySize=auto;html=1;dashed=1;fillColor=#f8cecc;strokeColor=#b85450;fontStyle=1;fontSize=12;" parent="CxIQSj_tXQ3jHg43zF80-5" source="v9B4CywxQethZYfmsZQ_-51" target="v9B4CywxQethZYfmsZQ_-41" edge="1">
          <mxGeometry relative="1" as="geometry">
            <mxPoint x="963.6000000000004" y="809.75" as="targetPoint" />
            <mxPoint x="-442" y="790" as="sourcePoint" />
            <Array as="points">
              <mxPoint x="-462" y="770" />
              <mxPoint x="890" y="770" />
              <mxPoint x="890" y="1030" />
              <mxPoint x="1097" y="1030" />
            </Array>
          </mxGeometry>
        </mxCell>
        <mxCell id="v9B4CywxQethZYfmsZQ_-50" value="&lt;div style=&quot;font-size: 12px;&quot;&gt;&lt;font style=&quot;font-size: 12px;&quot;&gt;AWSBackupSolutionKey&lt;/font&gt;&lt;/div&gt;&lt;font style=&quot;font-size: 12px;&quot;&gt;AWS KMS Key&lt;/font&gt;" style="outlineConnect=0;gradientColor=#F54749;gradientDirection=north;fillColor=#C7131F;strokeColor=#ffffff;dashed=0;verticalLabelPosition=bottom;verticalAlign=top;align=center;html=1;fontSize=12;fontStyle=1;aspect=fixed;shape=mxgraph.aws4.resourceIcon;resIcon=mxgraph.aws4.key_management_service;labelBackgroundColor=none;fontFamily=Helvetica;container=0;" parent="CxIQSj_tXQ3jHg43zF80-5" vertex="1">
          <mxGeometry x="1011.276923076923" y="501.82" width="77.11" height="77.11" as="geometry" />
        </mxCell>
        <mxCell id="v9B4CywxQethZYfmsZQ_-66" style="edgeStyle=orthogonalEdgeStyle;rounded=0;orthogonalLoop=1;jettySize=auto;html=1;dashed=1;fillColor=#f8cecc;strokeColor=#b85450;fontStyle=1;fontSize=12;entryX=0.491;entryY=0.007;entryDx=0;entryDy=0;entryPerimeter=0;" parent="CxIQSj_tXQ3jHg43zF80-5" source="v9B4CywxQethZYfmsZQ_-51" target="v9B4CywxQethZYfmsZQ_-62" edge="1">
          <mxGeometry relative="1" as="geometry">
            <mxPoint x="409" y="809.9955172413793" as="targetPoint" />
            <mxPoint x="-451.94117647058783" y="790" as="sourcePoint" />
            <Array as="points">
              <mxPoint x="-462" y="770" />
              <mxPoint x="259" y="770" />
            </Array>
          </mxGeometry>
        </mxCell>
        <mxCell id="v9B4CywxQethZYfmsZQ_-67" style="edgeStyle=orthogonalEdgeStyle;rounded=0;orthogonalLoop=1;jettySize=auto;html=1;dashed=1;fillColor=#f8cecc;strokeColor=#b85450;fontStyle=1;fontSize=12;" parent="CxIQSj_tXQ3jHg43zF80-5" target="v9B4CywxQethZYfmsZQ_-1" edge="1">
          <mxGeometry relative="1" as="geometry">
            <mxPoint x="269.46000000000004" y="814.4549999999999" as="targetPoint" />
            <mxPoint x="-460" y="780" as="sourcePoint" />
            <Array as="points">
              <mxPoint x="-452" y="780" />
              <mxPoint x="-452" y="770" />
              <mxPoint x="200" y="770" />
              <mxPoint x="200" y="1050" />
              <mxPoint x="397" y="1050" />
            </Array>
          </mxGeometry>
        </mxCell>
        <mxCell id="v9B4CywxQethZYfmsZQ_-32" value="&lt;div style=&quot;font-size: 12px;&quot;&gt;&lt;font style=&quot;font-size: 12px;&quot;&gt;&amp;nbsp; AWSBackupSolutionRole&lt;/font&gt;&lt;/div&gt;&lt;div style=&quot;font-size: 12px;&quot;&gt;&lt;font style=&quot;font-size: 12px;&quot;&gt;&amp;nbsp; (AWS Backup Service Role)&lt;/font&gt;&lt;/div&gt;" style="outlineConnect=0;gradientColor=none;fillColor=#C7131F;strokeColor=none;dashed=0;verticalLabelPosition=bottom;verticalAlign=top;align=center;html=1;fontSize=12;fontStyle=1;aspect=fixed;pointerEvents=1;shape=mxgraph.aws4.role;dashPattern=1 1;labelBackgroundColor=none;fontFamily=Helvetica;container=0;" parent="CxIQSj_tXQ3jHg43zF80-5" vertex="1">
          <mxGeometry x="659.1043076923077" y="670.0007586206897" width="78.44" height="44.24" as="geometry" />
        </mxCell>
        <mxCell id="v9B4CywxQethZYfmsZQ_-33" style="edgeStyle=orthogonalEdgeStyle;rounded=0;orthogonalLoop=1;jettySize=auto;html=1;fontSize=16;fontStyle=1;dashed=1;startArrow=classic;startFill=1;" parent="CxIQSj_tXQ3jHg43zF80-5" source="v9B4CywxQethZYfmsZQ_-49" target="kiC8-eNV-VLsFGezIAMi-8" edge="1">
          <mxGeometry relative="1" as="geometry">
            <mxPoint x="859" y="657.8979310344828" as="sourcePoint" />
            <mxPoint x="760.2538461538461" y="832.96" as="targetPoint" />
            <Array as="points">
              <mxPoint x="859" y="833" />
            </Array>
          </mxGeometry>
        </mxCell>
        <mxCell id="kiC8-eNV-VLsFGezIAMi-9" value="backup / &lt;br&gt;restore" style="edgeLabel;html=1;align=center;verticalAlign=middle;resizable=0;points=[];" parent="v9B4CywxQethZYfmsZQ_-33" vertex="1" connectable="0">
          <mxGeometry x="0.6577" relative="1" as="geometry">
            <mxPoint as="offset" />
          </mxGeometry>
        </mxCell>
        <mxCell id="v9B4CywxQethZYfmsZQ_-34" style="edgeStyle=none;rounded=0;orthogonalLoop=1;jettySize=auto;html=1;endArrow=none;endFill=0;fontSize=16;fontColor=#000000;fontStyle=1" parent="CxIQSj_tXQ3jHg43zF80-5" edge="1">
          <mxGeometry relative="1" as="geometry">
            <mxPoint x="894.599538461538" y="557.6178554209972" as="sourcePoint" />
            <mxPoint x="1009.2769230769231" y="556.1392249771188" as="targetPoint" />
          </mxGeometry>
        </mxCell>
        <mxCell id="v9B4CywxQethZYfmsZQ_-35" style="edgeStyle=none;rounded=0;orthogonalLoop=1;jettySize=auto;html=1;fontSize=16;fontColor=#000000;endArrow=none;endFill=0;fontStyle=1" parent="CxIQSj_tXQ3jHg43zF80-5" edge="1">
          <mxGeometry relative="1" as="geometry">
            <mxPoint x="734.833076923077" y="559.1423742721174" as="sourcePoint" />
            <mxPoint x="811.3995384615382" y="558.4882170887631" as="targetPoint" />
          </mxGeometry>
        </mxCell>
        <mxCell id="v9B4CywxQethZYfmsZQ_-36" value="Backup Plan" style="shape=image;verticalLabelPosition=bottom;labelBackgroundColor=none;verticalAlign=top;aspect=fixed;imageAspect=0;image=data:image/png,iVBORw0KGgoAAAANSUhEUgAAAEoAAABKCAYAAAAc0MJxAAAHsElEQVR4Ae1bW4gdNRg+23q/YFFB0KKItUotuzvzZ6kiwoq1pbV7zmTa1RdFUShCUaiWXtSlmeS0Xh5U8EVFUaQPPrRW0T6IKIK1QvFSBW8UvKA+eClUQVuxVflnN7uZOclMMmfO7ChnYZnkT/J/X77J/JNJchqN/l9fgb4CfQX+JwoEYvElYRsOhoL8U6d/yuHL5sSQVxuZAzGypU4CqVwoJ4dqI1YYEaaSq1u6NmIlhIoIm+2hnuAzFQ5qIVaCWE2FwlE+62LVWigOu1EgGQ5mVaxaCxURhsG8FmK5CHUDI4upIOuo8DZR4YfLNgyeXnZM0/GphVg6YunOL2dXnE05vCwfAXmlnPwc8JEb0/W7yZv4zLpYJmKys6Ns9BQq4AMpju5aplhZfGZVrCxiKFbYJhsT4mCAjeDxQMC30o4jq6zHMI/PrImVR4wK+EQK0hL++pmRNjwvIZbwQ1nWzTWPD/qeFbHyiIWCHJVCjbLheaoIOLJkGQZ4taxoOsHH4fsT34z43VoUN7ddgphmwomP1bQYE96Q6jDksHu6TJB1alnRdDffnrQNm4vi5rbLEyrkZKcUIxDkQzrhDeHIwsdQ2vGKU4dcMIsKXa1maG60BaRdlTyhmswjoYBjqijpNE4d7NDKr5XHvzREG6BAeHeYxMKpA86zSiPk6MiGv6NLfXVboHhkcbITYxblcCR+G7bJRpxn6T1XY7Xl3zWbyoC6Zqp3UBn/XgI1N152Jgb5kJOr6YR3VWu7t6isiamUrZf8JUZ8LRMI1sKJTUaaVMDzISdfpYO+zFMOX9DIf5JG5PpGozGQIOSYKZN/JnQZQBinQgH3UkF+kGJYX9twEF8WjfHG3EyihsIy+BtcJ80uQHFdXGNX5ithBNeaRk8c9Dn5jArYG0b+u7izQjn5UyciFeSjJvMHk+zycy78871l1HABUjuILsM2uY9yOK7aKYfvaeS3w4nhkVE2ekIaesVdC05ew/1rAk4eUxfkpnwcDSJyS7pNVt6Ff5af3DIXIFWQsO0/kcgL8gvl3p0Yp3JBpyqMMTiNCnI/FfCH6otyuMfWhwt/W5/aei5AamfUNI3gnea2JedpASyMlA0tVFcp0HfA/dssmjZc+Nv4M9ZxAVLFkWnKya4yJp2jbNEZlJO3pV9ctcDlFCPxqQIX/nm+MstdgJROdG6/KwE+EzCjEMUKBRyYwYEDujinunDhr7ZzTrsAmd5YccdKEArJ4+oB5fC7FCvg/tqsTrnwz/KTW+YCFEbedqNYJQmFhHERUApFOXzTYI05po648Df5sLJXBmTFZrLS+Pr5p1JOfpJitRhZaWpeGf/KgEw9NdhpRB6RQgURPGOoVs+3nolsL+yticElUqj48TOAVHajKwMydNRoHm/MVSeipsXByvhXBmRUxFxABXwsR5VpTlUZ/8qAzHoYS0LhvyGFmlqS6ahbGX8boJbw1lDh7w8FvF/W/l1HjzUGKsjrUqiADS3TVKlXMA+4f7MkTAXs0BHuhW3y5kwewh1j/pU6DJsbrWvnbLMBitec5DFB4e93BinYQF2GWcEG5+vc2PDXtXO22QBdt+Xyc6ZHFIcjOCF0BnJsgCsKM5jkkKm5DX9TWye7LRDl8Kkk3or8MSeQApVbHDZIPNy6N7mw5W9qb223BcLvPEl8tRh51RqgWMUBysnnEi9rbcqWfzEaSitboCbzF8hlXyrg75CBr7gpNdmK/JukSKGAw1lbXLb8uyboAkQ5vCQ7QAXZV3TnJIv00k1wVijId9M4jGzLqu/CP8tPbpkL0GoxfKm6zNJi8GAugFuFAfX0DBXwIwqX5cKFf5af3DJXoPT5Jcrh7lwQywrqwbR4REU+zWvqyj/Pn7G8ANAA5fCafDTwSqORh7IW14zgUwWTG6j+C0mf5NG8dlhegL+N2846RYAmt5lgb6JjguzDQ2adCNmWgJFR9Q2HPgNBXrSNf0X4ZzMylBYFindNhP9KQiwOx3FXBr/Lsvb38C02+f0Ib6rt4zQnT9mKhF0qyt8gh9ncFRBrzMHj1epmgOw4FeQ3yuEtGsHT+GgGzH845PAcjUbeUw/QTtfn5FfKvdvNTPUlXfHXu9RbywAaE4MX49RBzrNk5+2ucIxy8qzpW07PesZaBv8ZbxmpMoFiwXCtuw1f54mEi3KB8LemBWoy73w8n6BSXtUeumCcLTpJtcl0mfylT+21V0CrtsKF+E0Y/8ioDZvxFDGN4NYW85aOsYXn6shgGzwZEwjYI8Va2fYuQuHxTasTq1f8O/hVBtSBnDTEM3Ll8BmKFa8gqKOTk53JVv+VYJ5m3WW+xSBSH1nKyV8yj2etWpG/PA1R2Y2uDCjdQ0M+LRYKZRIJXVTGvzIggzBpcxyTBByWIykWSpB9Mmal61fGvzKgdA81eRm4VZFkWg3watPK+FcGpPZOk46DuRK4pw7975BCxSOLk13pppXxrwwo3UNNXnJRY5KMWWjTbVnJNrGgJZ6o6aBXGVAHst4QtOGB9NstEDChEwk9VMa/MiC9Ll1bK+NfGVDXkugdVMY/AeTw01Q1yNYm3csYlV7arU2nC9w07It+3JVg7eqnqQU607MbEf+mpoc/vi5B676LvgJ9BfoKuCjwL+pe5/c5jEK+AAAAAElFTkSuQmCC;fontSize=12;fontStyle=1;container=0;" parent="CxIQSj_tXQ3jHg43zF80-5" vertex="1">
          <mxGeometry x="657.7230769230769" y="512.7806896551724" width="81.11" height="81.11" as="geometry" />
        </mxCell>
        <mxCell id="v9B4CywxQethZYfmsZQ_-37" style="edgeStyle=orthogonalEdgeStyle;rounded=0;orthogonalLoop=1;jettySize=auto;html=1;dashed=1;fontStyle=1;exitX=0.679;exitY=1.008;exitDx=0;exitDy=0;exitPerimeter=0;" parent="CxIQSj_tXQ3jHg43zF80-5" source="v9B4CywxQethZYfmsZQ_-36" target="v9B4CywxQethZYfmsZQ_-32" edge="1">
          <mxGeometry relative="1" as="geometry">
            <mxPoint x="698" y="648.6841379310345" as="sourcePoint" />
            <Array as="points">
              <mxPoint x="713" y="660.1600000000001" />
              <mxPoint x="713" y="660.1600000000001" />
            </Array>
          </mxGeometry>
        </mxCell>
        <mxCell id="v9B4CywxQethZYfmsZQ_-38" value="" style="aspect=fixed;perimeter=ellipsePerimeter;html=1;align=center;shadow=0;dashed=0;fontColor=#4277BB;labelBackgroundColor=#ffffff;fontSize=16;spacingTop=3;image;image=img/lib/ibm/vpc/RegionTag.svg;fillColor=none;fontStyle=1;container=0;" parent="CxIQSj_tXQ3jHg43zF80-5" vertex="1">
          <mxGeometry x="592.9986656019017" y="473.6220689655172" width="25.406498964613238" height="25.406498964613238" as="geometry" />
        </mxCell>
        <mxCell id="v9B4CywxQethZYfmsZQ_-39" value="" style="outlineConnect=0;fontColor=#232F3E;gradientColor=none;fillColor=#BC1356;strokeColor=none;dashed=0;verticalLabelPosition=bottom;verticalAlign=top;align=center;html=1;fontSize=12;fontStyle=1;aspect=fixed;pointerEvents=1;shape=mxgraph.aws4.organizations_organizational_unit;container=0;" parent="CxIQSj_tXQ3jHg43zF80-5" vertex="1">
          <mxGeometry x="571" y="393.0013793103449" width="34.92" height="30" as="geometry" />
        </mxCell>
        <mxCell id="v9B4CywxQethZYfmsZQ_-40" value="&lt;font&gt;AWS Backup Policy - Target Regions&lt;br&gt;&lt;/font&gt;" style="text;html=1;strokeColor=none;fillColor=none;align=center;verticalAlign=middle;whiteSpace=wrap;rounded=0;dashed=1;fontSize=16;opacity=20;fontColor=#000000;fontStyle=1;container=0;" parent="CxIQSj_tXQ3jHg43zF80-5" vertex="1">
          <mxGeometry x="664.47" y="468.3356551724139" width="412.8" height="38.00689655172414" as="geometry" />
        </mxCell>
        <mxCell id="v9B4CywxQethZYfmsZQ_-41" value="AWS Config Record Bucket" style="outlineConnect=0;fontColor=#232F3E;gradientColor=none;fillColor=#277116;strokeColor=none;dashed=0;verticalLabelPosition=bottom;verticalAlign=top;align=center;html=1;fontSize=12;fontStyle=0;aspect=fixed;pointerEvents=1;shape=mxgraph.aws4.bucket_with_objects;container=0;" parent="CxIQSj_tXQ3jHg43zF80-5" vertex="1">
          <mxGeometry x="1062" y="930.0006896551724" width="75" height="78" as="geometry" />
        </mxCell>
        <mxCell id="v9B4CywxQethZYfmsZQ_-69" style="edgeStyle=orthogonalEdgeStyle;rounded=0;orthogonalLoop=1;jettySize=auto;html=1;startArrow=none;startFill=0;endArrow=classic;endFill=1;" parent="CxIQSj_tXQ3jHg43zF80-5" source="v9B4CywxQethZYfmsZQ_-43" target="v9B4CywxQethZYfmsZQ_-41" edge="1">
          <mxGeometry relative="1" as="geometry" />
        </mxCell>
        <mxCell id="v9B4CywxQethZYfmsZQ_-43" value="AWS Config Recorder&lt;br&gt;AWS Backup Events" style="points=[[0,0,0],[0.25,0,0],[0.5,0,0],[0.75,0,0],[1,0,0],[0,1,0],[0.25,1,0],[0.5,1,0],[0.75,1,0],[1,1,0],[0,0.25,0],[0,0.5,0],[0,0.75,0],[1,0.25,0],[1,0.5,0],[1,0.75,0]];points=[[0,0,0],[0.25,0,0],[0.5,0,0],[0.75,0,0],[1,0,0],[0,1,0],[0.25,1,0],[0.5,1,0],[0.75,1,0],[1,1,0],[0,0.25,0],[0,0.5,0],[0,0.75,0],[1,0.25,0],[1,0.5,0],[1,0.75,0]];outlineConnect=0;fontColor=#232F3E;gradientColor=#F34482;gradientDirection=north;fillColor=#BC1356;strokeColor=#ffffff;dashed=0;verticalLabelPosition=bottom;verticalAlign=top;align=center;html=1;fontSize=12;fontStyle=0;aspect=fixed;shape=mxgraph.aws4.resourceIcon;resIcon=mxgraph.aws4.config;container=0;" parent="CxIQSj_tXQ3jHg43zF80-5" vertex="1">
          <mxGeometry x="1062" y="789.9955172413793" width="78" height="78" as="geometry" />
        </mxCell>
        <mxCell id="v9B4CywxQethZYfmsZQ_-63" value="AWS Backup &lt;br&gt;Framework Controls" style="html=1;verticalLabelPosition=bottom;align=center;labelBackgroundColor=none;verticalAlign=top;strokeWidth=2;strokeColor=#0080F0;shadow=0;dashed=0;shape=mxgraph.ios7.icons.settings;fillColor=none;container=0;" parent="CxIQSj_tXQ3jHg43zF80-5" vertex="1">
          <mxGeometry x="920" y="796.5" width="60" height="65" as="geometry" />
        </mxCell>
        <mxCell id="xXyasQzCZubJCmbhg4r--3" value="" style="endArrow=classic;html=1;rounded=0;exitX=0;exitY=0.5;exitDx=0;exitDy=0;exitPerimeter=0;" parent="CxIQSj_tXQ3jHg43zF80-5" source="v9B4CywxQethZYfmsZQ_-43" target="v9B4CywxQethZYfmsZQ_-63" edge="1">
          <mxGeometry width="50" height="50" relative="1" as="geometry">
            <mxPoint x="320" y="600" as="sourcePoint" />
            <mxPoint x="370" y="550" as="targetPoint" />
          </mxGeometry>
        </mxCell>
        <mxCell id="kiC8-eNV-VLsFGezIAMi-4" value="&lt;div style=&quot;font-size: 12px&quot;&gt;&lt;div style=&quot;font-size: 12px&quot;&gt;&lt;span style=&quot;font-size: 12px&quot;&gt;organizations-aws-backup-demo-resources&lt;/span&gt;&lt;/div&gt;&lt;/div&gt;" style="outlineConnect=0;gradientColor=none;fillColor=#BC1356;strokeColor=none;dashed=0;verticalLabelPosition=bottom;verticalAlign=top;align=center;html=1;fontSize=12;fontStyle=1;aspect=fixed;pointerEvents=1;shape=mxgraph.aws4.stack;labelBackgroundColor=none;fontFamily=Helvetica;" parent="CxIQSj_tXQ3jHg43zF80-5" vertex="1">
          <mxGeometry x="-506" y="1260" width="80.88" height="78.8" as="geometry" />
        </mxCell>
        <mxCell id="kiC8-eNV-VLsFGezIAMi-7" style="edgeStyle=orthogonalEdgeStyle;rounded=0;orthogonalLoop=1;jettySize=auto;html=1;dashed=1;fillColor=#f8cecc;strokeColor=#b85450;fontStyle=1;fontSize=12;" parent="CxIQSj_tXQ3jHg43zF80-5" source="kiC8-eNV-VLsFGezIAMi-4" target="kiC8-eNV-VLsFGezIAMi-6" edge="1">
          <mxGeometry relative="1" as="geometry">
            <mxPoint x="593" y="1547.9258036642932" as="targetPoint" />
            <mxPoint x="-264" y="1310" as="sourcePoint" />
            <Array as="points">
              <mxPoint x="30" y="1299" />
            </Array>
          </mxGeometry>
        </mxCell>
        <mxCell id="kiC8-eNV-VLsFGezIAMi-8" value="EC2 Demo Instances&lt;br&gt;Tag - backup: daily" style="outlineConnect=0;fontColor=#232F3E;gradientColor=none;fillColor=#D86613;strokeColor=none;dashed=0;verticalLabelPosition=bottom;verticalAlign=top;align=center;html=1;fontSize=12;fontStyle=0;aspect=fixed;pointerEvents=1;shape=mxgraph.aws4.instances;" parent="CxIQSj_tXQ3jHg43zF80-5" vertex="1">
          <mxGeometry x="710" y="806.31" width="48" height="48" as="geometry" />
        </mxCell>
        <mxCell id="kiC8-eNV-VLsFGezIAMi-10" style="edgeStyle=orthogonalEdgeStyle;rounded=0;orthogonalLoop=1;jettySize=auto;html=1;dashed=1;fillColor=#f8cecc;strokeColor=#b85450;fontStyle=1;fontSize=12;" parent="CxIQSj_tXQ3jHg43zF80-5" source="kiC8-eNV-VLsFGezIAMi-4" target="kiC8-eNV-VLsFGezIAMi-8" edge="1">
          <mxGeometry relative="1" as="geometry">
            <mxPoint x="40" y="868" as="targetPoint" />
            <mxPoint x="-415.3759665293851" y="1309.4" as="sourcePoint" />
            <Array as="points">
              <mxPoint x="740" y="1299" />
            </Array>
          </mxGeometry>
        </mxCell>
      </root>
    </mxGraphModel>
  </diagram>
</mxfile>
